<svg width="115" height="61" viewBox="0 0 115 61" fill="none" xmlns="http://www.w3.org/2000/svg">
<path d="M44 38H41V51H44V38Z" fill="#C4122E"/>
<path d="M70.7396 41.1245C70.6035 41.0534 69.516 40.4051 67.8982 40.4051C65.7071 40.4051 64.191 41.9354 64.191 43.9988C64.191 46.0008 65.6439 47.5957 67.8982 47.5957C69.4882 47.5957 70.5939 46.9614 70.7396 46.8807V50.497C70.3196 50.6165 69.1657 50.9762 67.6549 50.9762C63.8524 50.9762 60.5171 48.3399 60.5171 43.9988C60.5171 39.9754 63.5385 37.0247 67.6549 37.0247C69.2471 37.0247 70.4214 37.4134 70.7396 37.5082V41.1245Z" fill="#C4122E"/>
<path d="M36 41.1141C35.8669 41.0428 34.8031 40.3922 33.2204 40.3922C31.077 40.3922 29.594 41.9278 29.594 43.9984C29.594 46.0073 31.0152 47.6078 33.2204 47.6078C34.7758 47.6078 35.8575 46.9713 36 46.8902V50.5191C35.5891 50.6391 34.4603 51 32.9825 51C29.2628 51 26 48.3545 26 43.9984C26 39.961 28.9557 37 32.9825 37C34.54 37 35.6887 37.3901 36 37.4852V41.1141Z" fill="#C4122E"/>
<path d="M80.9979 40.443C79.0141 40.443 77.5408 42.0359 77.5408 43.9984C77.5408 45.9652 79.0141 47.557 80.9979 47.557C82.9796 47.557 84.4571 45.9652 84.4571 43.9984C84.4571 42.0359 82.9796 40.443 80.9979 40.443ZM88 43.9984C88 47.8661 85.0735 51 80.9979 51C76.9222 51 74 47.8661 74 43.9984C74 40.1372 76.9222 37 80.9979 37C85.0735 37 88 40.1372 88 43.9984Z" fill="#C4122E"/>
<path d="M56.0811 40.3155C56.032 40.2993 54.6443 39.9028 53.504 39.9028C52.1831 39.9028 51.4647 40.3609 51.4647 41.0102C51.4647 41.8334 52.4337 42.1208 52.9756 42.2979L53.8851 42.5972C56.0247 43.3016 57 44.8173 57 46.4637C57 49.8592 54.1138 51 51.591 51C49.8378 51 48.1953 50.6662 48.0334 50.6305V47.5203C48.3237 47.5959 49.7062 48.0226 51.1462 48.0226C52.7866 48.0226 53.5406 47.5267 53.5406 46.7608C53.5406 46.0759 52.8879 45.6805 52.0703 45.4147C51.8709 45.3456 51.5712 45.2483 51.3665 45.1792C49.5308 44.5785 48 43.4625 48 41.2252C48 38.6972 49.8294 37 52.8681 37C54.473 37 55.9829 37.403 56.0811 37.43V40.3155Z" fill="#C4122E"/>
<path d="M22.3 23.3895C22.3 22.4844 21.5589 21.7505 20.6505 21.7505C19.7421 21.7505 19 22.4844 19 23.3895V26.8377C19 27.7481 19.7421 28.4831 20.6505 28.4831C21.5589 28.4831 22.3 27.7481 22.3 26.8377V23.3895Z" fill="#15495D"/>
<path d="M31.3624 18.8636C31.3624 17.9585 30.6214 17.2224 29.713 17.2224C28.8035 17.2224 28.0624 17.9585 28.0624 18.8636V26.8383C28.0624 27.7487 28.8035 28.4826 29.713 28.4826C30.6214 28.4826 31.3624 27.7487 31.3624 26.8383V18.8636Z" fill="#15495D"/>
<path d="M40.4249 12.6712C40.4249 11.7661 39.6839 11.0311 38.7755 11.0311C37.866 11.0311 37.1249 11.7661 37.1249 12.6712V30.1148C37.1249 31.0252 37.866 31.7602 38.7755 31.7602C39.6839 31.7602 40.4249 31.0252 40.4249 30.1148V12.6712Z" fill="#15495D"/>
<path d="M49.4875 18.8636C49.4875 17.9585 48.7464 17.2224 47.838 17.2224C46.9286 17.2224 46.1875 17.9585 46.1875 18.8636V26.8383C46.1875 27.7487 46.9286 28.4826 47.838 28.4826C48.7464 28.4826 49.4875 27.7487 49.4875 26.8383V18.8636Z" fill="#15495D"/>
<path d="M58.5397 23.3895C58.5397 22.4844 57.8039 21.7505 56.8997 21.7505C55.9912 21.7505 55.2502 22.4844 55.2502 23.3895V26.8377C55.2502 27.7481 55.9912 28.4831 56.8997 28.4831C57.8039 28.4831 58.5397 27.7481 58.5397 26.8377V23.3895Z" fill="#15495D"/>
<path d="M58.3 23.3895C58.3 22.4844 57.5589 21.7505 56.6505 21.7505C55.7421 21.7505 55 22.4844 55 23.3895V26.8377C55 27.7481 55.7421 28.4831 56.6505 28.4831C57.5589 28.4831 58.3 27.7481 58.3 26.8377V23.3895Z" fill="#15495D"/>
<path d="M67.3624 18.8636C67.3624 17.9585 66.6214 17.2224 65.713 17.2224C64.8035 17.2224 64.0624 17.9585 64.0624 18.8636V26.8383C64.0624 27.7487 64.8035 28.4826 65.713 28.4826C66.6214 28.4826 67.3624 27.7487 67.3624 26.8383V18.8636Z" fill="#15495D"/>
<path d="M76.4249 12.6712C76.4249 11.7661 75.6839 11.0311 74.7755 11.0311C73.866 11.0311 73.1249 11.7661 73.1249 12.6712V30.1148C73.1249 31.0252 73.866 31.7602 74.7755 31.7602C75.6839 31.7602 76.4249 31.0252 76.4249 30.1148V12.6712Z" fill="#15495D"/>
<path d="M85.4875 18.8636C85.4875 17.9585 84.7464 17.2224 83.838 17.2224C82.9286 17.2224 82.1875 17.9585 82.1875 18.8636V26.8383C82.1875 27.7487 82.9286 28.4826 83.838 28.4826C84.7464 28.4826 85.4875 27.7487 85.4875 26.8383V18.8636Z" fill="#15495D"/>
<path d="M94.5397 23.3895C94.5397 22.4844 93.8039 21.7505 92.8997 21.7505C91.9912 21.7505 91.2502 22.4844 91.2502 23.3895V26.8377C91.2502 27.7481 91.9912 28.4831 92.8997 28.4831C93.8039 28.4831 94.5397 27.7481 94.5397 26.8377V23.3895Z" fill="#15495D"/>
<path d="M93 49V49.238H92.1721V51H91.8323V49.238H91V49H93Z" fill="#C4122E"/>
<path d="M92 49H92.4251L93.0089 50.6406H93.0184L93.5832 49H94V51H93.7217V49.3607H93.7123L93.1202 51H92.8632L92.2854 49.3607H92.2724V51H92V49Z" fill="#C4122E"/>
</svg>
