<svg width="115" height="61" viewBox="0 0 115 61" fill="none" xmlns="http://www.w3.org/2000/svg">
<path fill-rule="evenodd" clip-rule="evenodd" d="M30.001 21.5644V20.0006H40.5098V21.5644H30.001ZM84 24.499H73.9808C73.9808 24.499 74.5275 22.9434 74.5246 22.9428H84V24.499ZM69.9626 24.5009H60.0373V22.9424H69.4193L69.9626 24.5009ZM58.1776 22.9421C58.377 23.456 58.6132 23.8954 58.6132 24.4983H41.8751V22.9421H58.1776ZM30.001 24.4983V22.9421H40.5098V24.4983H30.001ZM72.9566 27.4405L73.5067 25.8773L81.0292 25.879V27.437L72.9566 27.4405ZM70.4452 25.8765L70.9931 27.4402H62.9965V25.8765H70.4452ZM58.7456 25.8762C58.7456 26.4127 58.6788 26.9714 58.5244 27.4405H53.9417V25.8762H58.7456ZM32.9303 27.4403V25.8841H37.4474V27.4403H32.9303ZM44.9157 27.4397V25.876H49.4247V27.4397H44.9157ZM67.4383 29.129C67.4383 29.129 67.44 30.3126 67.4388 30.3155H62.9967V28.7587L71.4616 28.7588L71.987 30.2097C71.9893 30.2103 72.4939 28.7553 72.4951 28.7588L81.0263 28.7587V30.3155H76.606C76.606 30.3126 76.6031 29.129 76.6031 29.129L76.1947 30.3155L67.8467 30.3126L67.4383 29.129ZM44.9157 28.7586H57.8596V28.7575C57.5774 29.2789 57.0629 29.9131 56.5761 30.3154C56.5761 30.3154 44.9151 30.3171 44.9151 30.3154C44.9151 30.3125 44.9157 28.761 44.9157 28.7586ZM32.9303 30.3149V28.7581H37.4474V30.3149H32.9303ZM76.6059 33.2493V31.6932H81.0262V33.2493H76.6059ZM67.4383 31.693C67.4446 31.693 67.44 33.2486 67.44 33.2492C67.44 33.2503 62.9944 33.2486 62.9967 33.2492V31.693H67.4383ZM75.7132 31.693C75.6931 31.6901 75.1959 33.2486 75.1746 33.2492L68.8786 33.2521C68.8734 33.2497 68.325 31.6901 68.3244 31.693H75.7132ZM44.9146 31.6924H56.5537C57.0849 32.14 57.5653 32.6905 57.9409 33.2492C57.9622 33.2486 44.9152 33.2503 44.9152 33.2492C44.9152 33.2486 44.9146 31.6936 44.9146 31.6924ZM37.4466 33.249C37.4443 33.249 32.9365 33.2485 32.9376 33.2485C32.9388 33.2485 32.9376 31.6923 32.9376 31.6923H37.4466V33.249ZM76.6059 36.1844V34.6276H81.0256V36.1844H76.6059ZM62.9966 36.1838V34.6276H67.4381V36.1838H62.9966ZM74.1408 36.1914C74.1397 36.1978 69.8905 36.1838 69.8905 36.1838C69.8905 36.1838 69.3323 34.6265 69.3421 34.6276H74.6945C74.6858 34.6259 74.142 36.1838 74.1408 36.1914ZM44.9152 36.1834C44.9152 36.1898 44.9146 34.6272 44.9152 34.6266H49.4916C49.4916 34.6266 49.4956 36.184 49.4916 36.184C49.4875 36.184 44.9152 36.1816 44.9152 36.1834ZM58.5833 34.6268C58.8045 35.0959 58.8269 35.6546 58.8713 36.1905H54.0224V34.6268H58.5833ZM32.9378 36.1832V34.627H37.4468V36.1832H32.9378ZM76.6059 39.0584V37.5011H83.9993V39.0584H76.6059ZM60.0372 39.0584V37.5011H67.4381V39.0584H60.0372ZM73.1462 39.0582H70.8885L70.347 37.5008H73.6681L73.1462 39.0582ZM30.0006 37.501C29.9885 37.501 40.5066 37.5022 40.502 37.5022C40.4974 37.5022 40.5066 39.0601 40.502 39.0578L30.0006 39.0578V37.501ZM58.6789 37.501C58.5683 38.0149 58.4669 38.6404 58.0953 39.0583L57.9565 39.0578H41.8746V37.501H58.6789ZM72.1229 41.9959H71.9155L71.3878 40.4357H72.6644L72.1229 41.9959ZM76.6059 41.9992V40.4361H83.9993V41.9992H76.6059ZM41.8721 41.9959V40.438C41.8721 40.438 57.0444 40.4398 57.0882 40.4398C56.0696 41.4233 54.6721 41.9779 53.1668 41.9994L41.8744 41.9959H41.8721ZM60.0372 41.9992V40.4361H67.4381V41.9992H60.0372ZM40.5023 40.4428C40.5023 40.4428 40.4977 41.9961 40.5023 41.9961C40.5069 41.9961 30.0032 42.0024 30.0009 41.999C29.998 41.9961 30.0032 40.4381 30.0009 40.4381C29.998 40.4381 40.4977 40.4474 40.5023 40.4428ZM53.4098 20.0006C54.7855 20.1343 55.9809 20.629 56.9994 21.5672C56.9994 21.5672 41.8721 21.5684 41.8721 21.5672V20L53.4098 20.0006ZM60.0378 20.0006L68.3835 20L68.9302 21.5672C68.9342 21.5649 60.0407 21.5695 60.0407 21.5672C60.0407 21.5649 60.0355 20.0006 60.0378 20.0006ZM75.5653 20.0011H83.9997V21.5648H75.0111L75.5653 20.0011Z" fill="#4C82C2"/>
</svg>
