<svg width="115" height="61" viewBox="0 0 115 61" fill="none" xmlns="http://www.w3.org/2000/svg">
<path d="M102.465 22.384H102.887C103.09 22.384 103.228 22.3535 103.302 22.294C103.337 22.2656 103.366 22.2293 103.385 22.188C103.404 22.1466 103.413 22.1015 103.411 22.0561C103.412 21.9949 103.393 21.9351 103.358 21.8852C103.321 21.8338 103.27 21.7948 103.21 21.7735C103.148 21.7468 103.031 21.7361 102.861 21.7361H102.465V22.384ZM102.116 23.5989V21.4425H102.858C103.111 21.4425 103.295 21.4627 103.409 21.502C103.522 21.5417 103.612 21.6118 103.679 21.7117C103.747 21.8097 103.781 21.9154 103.781 22.0259C103.781 22.1842 103.723 22.3207 103.611 22.4378C103.498 22.5541 103.349 22.62 103.163 22.6342C103.239 22.6658 103.3 22.7039 103.347 22.7482C103.432 22.8324 103.538 22.9754 103.664 23.176L103.927 23.5993H103.498L103.308 23.2588C103.157 22.9926 103.037 22.8252 102.948 22.7577C102.884 22.707 102.792 22.6814 102.67 22.6814H102.465V23.5989H102.116ZM102.994 20.8137C102.712 20.8137 102.437 20.8862 102.17 21.0303C101.906 21.173 101.688 21.3886 101.543 21.6515C101.396 21.9068 101.318 22.1964 101.317 22.4912C101.317 22.7806 101.391 23.0578 101.538 23.324C101.687 23.5886 101.894 23.7953 102.161 23.9432C102.415 24.089 102.702 24.1659 102.994 24.1663C103.284 24.1663 103.562 24.0923 103.827 23.9432C104.089 23.8002 104.304 23.5853 104.447 23.324C104.592 23.0703 104.668 22.7833 104.669 22.4912C104.669 22.1998 104.594 21.9192 104.444 21.6515C104.3 21.3879 104.082 21.172 103.817 21.0299C103.549 20.8858 103.274 20.8137 102.994 20.8137V20.8137ZM102.994 20.4827C103.331 20.4827 103.661 20.5693 103.981 20.742C104.298 20.9107 104.559 21.1687 104.731 21.4841C104.911 21.8067 105 22.1419 105 22.4912C105 22.8366 104.912 23.1695 104.736 23.4887C104.564 23.8027 104.306 24.0609 103.992 24.233C103.688 24.4056 103.344 24.4965 102.994 24.4969C102.644 24.4966 102.3 24.4057 101.995 24.233C101.682 24.0604 101.424 23.8023 101.252 23.4887C101.078 23.1847 100.987 22.8411 100.985 22.4912C100.985 22.1419 101.075 21.8067 101.256 21.4841C101.429 21.1693 101.69 20.9117 102.007 20.7424C102.328 20.5693 102.657 20.4827 102.994 20.4827" fill="#808080"/>
<path fill-rule="evenodd" clip-rule="evenodd" d="M19.9306 18.0029C18.9251 18.0296 17.9131 18.2397 16.951 18.5863C13.2251 20.1414 10.634 23.5344 9.46177 27.6054C9.26386 28.3696 9.10332 29.1345 9.01715 29.9239C9.01715 29.9494 8.95537 30.7266 9.06634 30.5168C9.1773 30.3323 9.22649 30.0604 9.28827 29.8503C9.85568 27.9383 10.5474 26.1983 11.6082 24.5453C14.1502 20.8064 18.2338 18.401 22.5515 19.7337C23.3538 20.0045 24.0692 20.3999 24.7845 20.8686C24.9199 20.9673 25.9193 21.7571 25.6974 21.0413C25.5125 20.4747 25.0438 19.9923 24.6362 19.6098C23.2642 18.4224 21.6069 17.9583 19.9306 18.0029V18.0029ZM51.4444 21.7437C50.8648 21.7437 50.421 21.942 50.1121 22.3493C49.791 22.7435 49.6434 23.3361 49.6434 24.1136V29.7397C48.9277 28.9504 48.1879 28.3822 47.4356 27.999C46.9177 27.749 46.3635 27.5826 45.7936 27.5059C45.4177 27.4554 45.0388 27.4308 44.6595 27.4323C42.772 27.4323 41.2295 28.0977 40.0703 29.4297C38.9099 30.7624 38.3303 32.6137 38.3303 34.9947C38.3303 36.1177 38.479 37.1656 38.7623 38.1281C39.059 39.0905 39.4903 39.9291 40.0577 40.6448C40.6034 41.3368 41.2937 41.9012 42.0802 42.2986C42.8578 42.6799 43.6963 42.8782 44.6096 42.8782C45.0172 42.8782 45.4119 42.8401 45.7936 42.7665C46.0363 42.7282 46.2757 42.6707 46.5093 42.5945C47.0872 42.3975 47.6321 42.1147 48.1258 41.7556C48.6322 41.385 49.1252 40.9041 49.6434 40.3245V40.6936C49.6434 41.3979 49.8166 41.9283 50.1491 42.3104C50.482 42.6803 50.927 42.8782 51.4444 42.8782C51.9501 42.8782 52.3943 42.6933 52.7276 42.3352C53.0609 41.965 53.2206 41.4227 53.2206 40.6936V23.9154C53.2206 23.2126 53.0731 22.6696 52.7642 22.2993C52.4443 21.9294 51.9996 21.7437 51.4444 21.7437V21.7437ZM98.0041 21.7437C97.4245 21.7437 96.9803 21.942 96.6722 22.3493C96.3633 22.7435 96.2031 23.3361 96.2031 24.1136V29.7397C95.4878 28.9504 94.7472 28.3822 93.9953 27.999C93.5262 27.7644 92.9714 27.5928 92.354 27.5059C91.9778 27.4553 91.5985 27.4307 91.2188 27.4323C89.332 27.4323 87.8022 28.0977 86.6296 29.4297C85.4704 30.7624 84.89 32.6137 84.89 34.9947C84.89 36.1177 85.0379 37.1656 85.3339 38.1281C85.6298 39.0905 86.0492 39.9291 86.617 40.6448C87.1629 41.337 87.8536 41.9015 88.6407 42.2986C89.4175 42.6799 90.2571 42.8782 91.17 42.8782C91.5887 42.8782 91.9838 42.8401 92.354 42.7665C92.6011 42.7299 92.8345 42.6685 93.069 42.5945C93.6468 42.3976 94.1915 42.1148 94.6851 41.7556C95.1915 41.385 95.6975 40.9041 96.2027 40.3245V40.6936C96.2027 41.3979 96.3755 41.9283 96.7088 42.3104C97.0542 42.6803 97.4859 42.8782 98.0037 42.8782C98.5349 42.8782 98.9658 42.6933 99.2999 42.3352C99.6331 41.965 99.8055 41.4227 99.8055 40.6936V23.9154C99.8055 23.2126 99.6453 22.6696 99.3372 22.2993C99.0162 21.9294 98.5845 21.7437 98.0037 21.7437H98.0041ZM18.9583 22.7714C18.4368 22.7577 17.9202 22.8756 17.4562 23.1142C15.9142 23.8909 15.2968 25.7785 16.0865 27.3206C16.8637 28.863 18.7504 29.4804 20.2929 28.6911C21.835 27.9135 22.452 26.026 21.6626 24.4847C21.4091 23.9811 21.0236 23.5558 20.5473 23.2541C20.0711 22.9524 19.5219 22.7855 18.9583 22.7714V22.7714ZM61.9434 27.3824C60.8452 27.3949 59.8461 27.5799 58.9333 27.9246C57.9952 28.2956 57.2062 28.8264 56.5648 29.5052C55.9227 30.1954 55.4293 31.0229 55.096 31.9846C54.7627 32.9474 54.5904 33.996 54.5904 35.1183C54.5904 37.5118 55.2813 39.3864 56.6381 40.7802C57.9212 42.1011 59.686 42.7913 61.9434 42.8649C62.0788 42.8778 62.2023 42.8782 62.3381 42.8782C63.4115 42.8782 64.3492 42.7421 65.1759 42.4588C66.0022 42.1743 66.6806 41.8296 67.2232 41.4094C67.7788 40.9785 68.1735 40.5338 68.4454 40.077C68.7169 39.621 68.8519 39.2141 68.8519 38.8812C68.8519 38.4987 68.7291 38.1902 68.4946 37.9797C68.2486 37.7708 67.9268 37.659 67.5443 37.659C67.1744 37.659 66.9037 37.746 66.7054 37.9061C66.326 38.2674 65.9395 38.6212 65.5462 38.9674C65.2355 39.2285 64.9099 39.4715 64.5711 39.6949C64.2127 39.9169 63.8558 40.0904 63.4729 40.1887C63.103 40.2993 62.6836 40.3489 62.2271 40.3489C62.128 40.3489 62.0296 40.3489 61.9434 40.3363C61.3764 40.2993 60.8452 40.1392 60.3647 39.8425C59.8092 39.51 59.3523 39.0169 59.0202 38.3752C58.6743 37.709 58.5012 36.9441 58.489 36.0807H65.9405C66.9281 36.0807 67.7049 35.9328 68.2597 35.6613C68.8031 35.3654 69.0746 34.748 69.0746 33.7981C69.0746 32.7617 68.8153 31.7504 68.2845 30.7514C67.754 29.7637 66.9525 28.9504 65.8917 28.32C64.8301 27.6916 63.5465 27.3824 62.067 27.3824H61.9434ZM77.18 27.3824C76.0818 27.3949 75.0701 27.5799 74.1698 27.9246C73.2318 28.2956 72.4424 28.8264 71.7877 29.5052C71.1585 30.1954 70.6658 31.0229 70.3333 31.9846C69.9997 32.9474 69.8269 33.996 69.8269 35.1183C69.8269 37.5118 70.5053 39.3864 71.8624 40.7802C73.1448 42.1011 74.9222 42.7913 77.18 42.8649C77.3039 42.8778 77.4382 42.8782 77.5739 42.8782C78.6355 42.8782 79.5854 42.7421 80.4117 42.4588C81.2381 42.1743 81.9168 41.8296 82.4594 41.4094C83.0032 40.9785 83.4093 40.5338 83.6812 40.077C83.9523 39.621 84.0885 39.2141 84.0885 38.8812C84.0885 38.4987 83.9645 38.1902 83.7178 37.9797C83.4837 37.7708 83.1634 37.659 82.7683 37.659C82.4099 37.659 82.1387 37.746 81.9412 37.9061C81.46 38.3504 81.0787 38.7081 80.7824 38.9674C80.4674 39.2286 80.1376 39.4716 79.7947 39.6949C79.4504 39.9169 79.0794 40.0904 78.7099 40.1887C78.3266 40.2993 77.9205 40.3489 77.4637 40.3489C77.3646 40.3489 77.2662 40.3489 77.18 40.3363C76.6122 40.2993 76.0814 40.1392 75.6002 39.8425C75.0328 39.51 74.5885 39.0169 74.2434 38.3752C73.9101 37.709 73.737 36.9441 73.7248 36.0807H81.1637C82.1635 36.0807 82.9407 35.9328 83.4837 35.6613C84.0393 35.3654 84.3096 34.748 84.3096 33.7981C84.3096 32.7617 84.0393 31.7504 83.5085 30.7514C82.978 29.7637 82.1879 28.9504 81.1145 28.32C80.0533 27.6916 78.7835 27.3824 77.2902 27.3824H77.18ZM25.3645 27.4079C24.8093 27.4079 24.3769 27.5925 24.0688 27.9501C23.7481 28.2956 23.5875 28.8386 23.5875 29.5662V40.5583C23.5875 41.298 23.7603 41.8784 24.1176 42.2734C24.476 42.6799 24.9195 42.8782 25.4751 42.8782C26.0425 42.8782 26.4986 42.6799 26.857 42.2986C27.2147 41.9036 27.4 41.335 27.4 40.5583V35.8089C27.4 34.2416 27.4862 33.1934 27.6711 32.6256C27.9301 31.9106 28.3503 31.3558 28.9051 30.9485C29.4607 30.5534 30.0773 30.3437 30.7561 30.3437C31.7914 30.3437 32.4949 30.677 32.8408 31.3424C33.1859 32.0093 33.3594 32.9707 33.3594 34.2298V40.5583C33.3594 41.298 33.5313 41.8784 33.8894 42.2734C34.2467 42.6799 34.7035 42.8782 35.2709 42.8782C35.8258 42.8782 36.2822 42.6799 36.6277 42.2853C36.9736 41.9036 37.1581 41.3228 37.1581 40.5583V33.4896C37.1581 32.6511 37.1215 31.9594 37.0471 31.429C36.9732 30.886 36.8134 30.3811 36.5541 29.9117C36.1594 29.1101 35.5794 28.4931 34.7897 28.0611C34 27.6291 33.1001 27.4079 32.1002 27.4079C31.0638 27.4079 30.1509 27.6169 29.349 28.0245C28.5596 28.4436 27.8321 29.0853 27.1525 29.9731V29.5052C27.1525 29.0609 27.079 28.6785 26.9188 28.3574C26.7586 28.0371 26.5363 27.8022 26.2652 27.6417C25.9929 27.4811 25.697 27.4079 25.3645 27.4079V27.4079ZM61.9316 30.0352H61.9434C62.9295 30.0352 63.7318 30.3559 64.3362 30.9977C64.954 31.6387 65.2987 32.6137 65.3971 33.9217H58.4886C58.6248 32.6389 58.9946 31.6639 59.599 31.0103C60.2034 30.3563 60.9806 30.0352 61.9312 30.0352H61.9316ZM77.1674 30.0352H77.18C78.1669 30.0352 78.9677 30.3559 79.5721 30.9977C80.1772 31.6387 80.5349 32.6137 80.6215 33.9217H73.7252C73.8484 32.6389 74.2186 31.6639 74.8356 31.0103C75.4404 30.3563 76.2175 30.0352 77.1674 30.0352ZM45.7455 30.2572H45.7936C46.4476 30.2572 47.0523 30.4547 47.5953 30.8375C48.1627 31.2196 48.6078 31.7748 48.9403 32.5028C49.2617 33.2307 49.4341 34.1066 49.4341 35.1187C49.4341 36.2039 49.2617 37.1042 48.9403 37.8196C48.6078 38.5353 48.1628 39.0654 47.6079 39.4105C47.0645 39.7559 46.4476 39.9298 45.7936 39.9298H45.7821C45.116 39.9298 44.5108 39.7445 43.9556 39.3868C43.389 39.0169 42.9565 38.4739 42.6362 37.7586C42.3151 37.0306 42.155 36.1547 42.155 35.1183C42.155 34.1436 42.3037 33.2799 42.5996 32.552C42.9077 31.8122 43.3272 31.244 43.882 30.8494C44.425 30.4417 45.0542 30.2572 45.7455 30.2572V30.2572ZM92.3167 30.2572H92.354C93.008 30.2572 93.6124 30.4547 94.1676 30.8375C94.7228 31.2196 95.1674 31.7748 95.5 32.5028C95.8332 33.2307 95.9938 34.1066 95.9938 35.1187C95.9938 36.2039 95.8332 37.1042 95.5 37.8196C95.1674 38.5353 94.7221 39.0654 94.1794 39.4105C93.6331 39.7545 92.9996 39.9347 92.354 39.9298H92.3422C91.6764 39.9298 91.0709 39.7445 90.5157 39.3868C89.9612 39.0169 89.517 38.4739 89.1963 37.7586C88.8756 37.0306 88.7151 36.1547 88.7151 35.1183C88.7151 34.1436 88.8619 33.2803 89.1707 32.552C89.467 31.8122 89.8991 31.244 90.4421 30.8494C90.998 30.4417 91.6139 30.2572 92.3167 30.2572V30.2572ZM21.0708 30.3811C20.0832 30.9721 18.9239 31.3058 17.6904 31.3058C17.4318 31.3058 17.1847 31.294 16.9254 31.2688V40.3489C16.9254 41.1878 17.123 41.817 17.5058 42.2368C17.9005 42.6685 18.3821 42.8782 18.9865 42.8782C19.6027 42.8782 20.1095 42.6685 20.4908 42.249C20.874 41.8296 21.0708 41.2004 21.0708 40.3489V30.3815V30.3811Z" fill="#2164F3"/>
</svg>
