<svg width="115" height="61" viewBox="0 0 115 61" fill="none" xmlns="http://www.w3.org/2000/svg">
    <path fill-rule="evenodd" clip-rule="evenodd" d="M22.2662 18.8749C22.4073 18.8749 22.5496 18.9225 22.6856 19.0159C21.638 19.5077 20.5153 20.7465 20.0411 23.2198C19.3481 23.4339 18.671 23.6433 18.0446 23.8369C18.6002 21.9502 19.9188 18.8749 22.2662 18.8749ZM23.2375 19.7918C23.4385 20.2944 23.5689 21.0155 23.5689 21.9886C23.5689 22.0384 23.5685 22.0841 23.5683 22.13C22.7728 22.3758 21.9086 22.6429 21.0423 22.9104C21.5289 21.0376 22.4403 20.1331 23.2375 19.7918ZM25.6483 21.4877C25.2855 21.5998 24.8729 21.7272 24.4254 21.8653C24.4258 21.7794 24.4262 21.6949 24.4262 21.6023C24.4262 20.7959 24.3143 20.1467 24.1341 19.6322C24.8572 19.7228 25.3387 20.5434 25.6483 21.4877ZM31.5179 22.9234C31.5004 22.7962 31.389 22.7258 31.2966 22.718C31.2046 22.7105 29.2568 22.5665 29.2568 22.5665C29.2568 22.5665 27.904 21.2265 27.7556 21.0782C27.6069 20.9299 27.3171 20.9748 27.2045 21.0079C27.1876 21.0128 26.9089 21.0987 26.4472 21.2411C25.9952 19.944 25.1978 18.7516 23.7949 18.7516C23.756 18.7516 23.7163 18.753 23.6762 18.7553C23.2772 18.2288 22.7829 18.0001 22.356 18.0001C19.0878 18.0001 17.5265 22.0768 17.0369 24.1482C15.7668 24.5409 14.8647 24.82 14.7493 24.8561C14.0404 25.0782 14.018 25.1003 13.9252 25.7667C13.855 26.2713 11.9999 40.5837 11.9999 40.5837L26.4531 43.2857L34.2844 41.5953C34.2844 41.5953 31.5354 23.0506 31.5179 22.9234Z" fill="#95BE46"/>
    <path fill-rule="evenodd" clip-rule="evenodd" d="M31.2967 22.7181C31.2047 22.7105 29.2567 22.5665 29.2567 22.5665C29.2567 22.5665 27.9041 21.2265 27.7555 21.0782C27.7003 21.0228 27.6252 20.9948 27.5468 20.9824L26.454 43.2855L34.2845 41.5953C34.2845 41.5953 31.5355 23.0506 31.518 22.9234C31.5005 22.7963 31.3889 22.7258 31.2967 22.7181Z" fill="#5E8D3E"/>
    <path fill-rule="evenodd" clip-rule="evenodd" d="M23.7949 27.0356L22.8293 29.9015C22.8293 29.9015 21.9832 29.451 20.9462 29.451C19.4257 29.451 19.3493 30.403 19.3493 30.6429C19.3493 31.9519 22.7688 32.4534 22.7688 35.5193C22.7688 37.9315 21.2357 39.4848 19.1679 39.4848C16.6869 39.4848 15.4184 37.9441 15.4184 37.9441L16.0825 35.7542C16.0825 35.7542 17.3866 36.8713 18.4874 36.8713C19.2062 36.8713 19.4987 36.3065 19.4987 35.8937C19.4987 34.1862 16.6932 34.1101 16.6932 31.3045C16.6932 28.9432 18.3919 26.658 21.821 26.658C23.1422 26.658 23.7949 27.0356 23.7949 27.0356Z" fill="#FEFEFE"/>
    <path fill-rule="evenodd" clip-rule="evenodd" d="M73.0255 36.8612C72.2259 36.8612 71.7538 36.4161 71.7538 36.4161L72.2668 33.5437C72.6239 31.6289 73.6281 30.3598 74.6993 30.3598C75.6362 30.3598 75.9265 31.2283 75.9265 32.0518C75.9265 34.0335 74.7437 36.8612 73.0255 36.8612ZM75.9711 27.8217C78.2249 27.8217 79.1396 29.6697 79.1396 31.7402C79.1396 35.4807 76.7744 39.1766 73.1595 39.1766C71.9842 39.1766 71.3519 38.776 71.3519 38.776H71.2849L70.437 43.3179H67.3575L69.4999 32.0743C69.7454 30.8052 69.9908 29.113 70.1247 27.9999H72.847L72.6684 29.6474H72.7132C72.7132 29.6474 73.8928 27.8217 75.9711 27.8217ZM83.5359 23.4133C84.4732 23.4133 85.0758 24.059 85.0758 24.9495C85.0536 26.085 84.2277 26.7307 83.2684 26.7307H83.2236C82.3533 26.7307 81.7733 26.1073 81.7733 25.1945C81.7733 24.1925 82.5542 23.4133 83.5359 23.4133ZM79.2293 38.9541L81.3046 28.0666H84.4063L82.3089 38.9541H79.2293ZM92.2387 28.0443L91.8147 30.3597H89.6946L88.0657 38.9541H84.9862L86.6152 30.3597H85.1871L85.6336 28.0443H87.0615L87.1509 27.5322C87.3964 26.2407 87.8872 24.9497 88.936 24.059C89.7616 23.3464 90.855 23.0346 91.9484 23.0346C93.0864 23.0346 93.622 23.3017 93.622 23.3017L93.0194 25.7063C93.0194 25.7063 92.586 25.5507 92.0378 25.5507C91.0113 25.5507 90.3863 26.4857 90.2078 27.5322L90.0964 28.0443H92.2387ZM99.6471 28.0667H102.86L99.0893 36.1265C97.7506 38.8874 96.4562 40.9133 95.0503 42.2272C93.9571 43.2513 92.6625 43.7632 92.0377 43.897L91.19 41.2918C91.7032 41.1136 92.3502 40.8465 92.9304 40.4234C93.6446 39.9339 94.2472 39.266 94.6042 38.5756C94.6934 38.4198 94.7156 38.2861 94.6712 38.0635L92.8188 28.0667H96.0545C96.0545 28.0667 96.754 34.6973 96.8133 35.5476H96.8579C97.7223 32.906 99.6471 28.0667 99.6471 28.0667ZM43.4134 32.4081C44.6186 33.0983 45.6227 34.0335 45.6227 35.3473C45.6227 37.7962 43.6368 39.1545 40.8697 39.1545C38.966 39.1545 37.835 38.3974 37.835 38.3974L38.5935 36.2155C38.5935 36.2155 39.8186 36.8835 41.1152 36.8835C41.9853 36.8835 42.454 36.416 42.454 35.837C42.454 35.2805 42.1195 34.9017 41.182 34.3674C40.0216 33.6996 39.1513 32.7644 39.1513 31.5399C39.1513 29.3803 41.0147 27.8439 43.7037 27.8439C45.6355 27.8439 46.2923 28.3562 46.2923 28.3562L45.5781 30.5379C45.5781 30.5379 44.6728 30.115 43.659 30.115C42.7887 30.115 42.2309 30.5158 42.2309 31.1392C42.2309 31.6289 42.6325 31.9852 43.4134 32.4081ZM54.437 27.8217C56.0438 27.8217 56.9587 28.868 56.9587 30.6047C56.9587 31.1392 56.8693 31.9405 56.7356 32.6086L55.5306 38.9542H52.451L53.6115 32.809C53.7008 32.3859 53.7454 31.8737 53.7454 31.4507C53.7454 30.7829 53.4775 30.3153 52.7859 30.3153C51.8039 30.3153 50.7552 31.5621 50.3534 33.5884L49.3269 38.9542H46.2476L49.2378 23.2573H52.3173L51.1345 29.4248L51.1791 29.4469C52.0048 28.4674 53.0758 27.8217 54.437 27.8217ZM62.4036 36.8167C61.355 36.8167 60.9085 35.926 60.9085 34.8129C60.9085 33.0541 61.8234 30.1817 63.497 30.1817C64.5904 30.1817 64.9473 31.1168 64.9473 32.0297C64.9473 33.9224 64.0326 36.8167 62.4036 36.8167ZM63.9211 27.8218C60.2167 27.8218 57.7622 31.1613 57.7622 34.8795C57.7622 37.2618 59.2349 39.1766 62.0017 39.1766C65.6393 39.1766 68.0936 35.926 68.0936 32.1187C68.0936 29.9148 66.7997 27.8218 63.9211 27.8218Z" fill="#231F20"/>
</svg>
