<svg width="115" height="61" viewBox="0 0 115 61" fill="none" xmlns="http://www.w3.org/2000/svg">
<path d="M26.5693 19.486C25.4418 18.2009 23.4037 17.65 20.7964 17.65H13.2291C12.971 17.6498 12.7213 17.7418 12.525 17.9094C12.3287 18.0769 12.1986 18.309 12.1582 18.564L9.0087 38.5487C8.9941 38.6415 8.99977 38.7362 9.02532 38.8265C9.05087 38.9168 9.09569 39.0005 9.1567 39.0719C9.21771 39.1432 9.29346 39.2004 9.37872 39.2396C9.46398 39.2789 9.55674 39.2991 9.65059 39.2991H14.3223L15.4956 31.8571L15.4592 32.0901C15.4989 31.8357 15.6281 31.6038 15.8236 31.4362C16.0191 31.2687 16.268 31.1764 16.5254 31.1761H18.7454C23.1066 31.1761 26.5215 29.4047 27.519 24.2803C27.5486 24.1288 27.5742 23.9813 27.5965 23.8372C27.8928 21.9431 27.5944 20.654 26.57 19.4867" fill="#003087"/>
<path d="M83.7612 28.9958C83.4756 30.871 82.0437 30.871 80.6589 30.871H79.8708L80.4238 27.3699C80.4575 27.1584 80.6393 27.0028 80.8535 27.0028H81.2152C82.1582 27.0028 83.0486 27.0028 83.5079 27.5396C83.7821 27.8609 83.8649 28.3378 83.7612 28.9958V28.9958ZM83.1584 24.1032H77.9344C77.7614 24.1033 77.594 24.165 77.4624 24.2774C77.3308 24.3897 77.2436 24.5453 77.2164 24.7161L75.1055 38.1109C75.0958 38.173 75.0996 38.2365 75.1167 38.297C75.1338 38.3575 75.1638 38.4135 75.2047 38.4613C75.2455 38.5091 75.2962 38.5475 75.3532 38.5739C75.4103 38.6002 75.4724 38.614 75.5352 38.6141H78.2159C78.4658 38.6141 78.6786 38.4322 78.7177 38.1857L79.3172 34.3869C79.3724 34.0346 79.6768 33.774 80.0338 33.774H81.6867C85.1285 33.774 87.1141 32.1096 87.6327 28.8086C87.8665 27.3659 87.6422 26.2316 86.9666 25.4375C86.2237 24.5646 84.9069 24.1025 83.159 24.1025" fill="#009CDE"/>
<path d="M46.5008 28.9958C46.2152 30.871 44.7832 30.871 43.3978 30.871H42.6097L43.1627 27.3699C43.1964 27.1584 43.3782 27.0028 43.5924 27.0028H43.9541C44.8971 27.0028 45.7875 27.0028 46.2468 27.5396C46.5217 27.8609 46.6045 28.3378 46.5008 28.9958V28.9958ZM45.898 24.1032H40.674C40.317 24.1032 40.0125 24.3632 39.9566 24.7161L37.8451 38.1109C37.8352 38.173 37.839 38.2365 37.8561 38.2971C37.8731 38.3576 37.9031 38.4137 37.944 38.4615C37.9848 38.5094 38.0355 38.5478 38.0927 38.5741C38.1498 38.6004 38.2119 38.6141 38.2748 38.6141H40.7696C41.1266 38.6141 41.4303 38.3541 41.4862 38.0011L42.0567 34.3876C42.112 34.0346 42.4164 33.7746 42.7734 33.7746H44.4263C47.8681 33.7746 49.8537 32.1096 50.3723 28.8086C50.606 27.3658 50.3817 26.2316 49.7062 25.4375C48.9632 24.5646 47.6465 24.1025 45.8986 24.1025L45.898 24.1032ZM58.0264 33.8049C57.784 35.2342 56.6504 36.194 55.2029 36.194C54.4775 36.194 53.8963 35.9603 53.5231 35.5184C53.1527 35.0806 53.0139 34.4563 53.1311 33.7618C53.3561 32.3447 54.5092 31.3546 55.9344 31.3546C56.645 31.3546 57.2209 31.5903 57.6021 32.0362C57.9853 32.4855 58.1362 33.1132 58.0264 33.8049V33.8049ZM61.5127 28.9352H59.0112C58.9072 28.9351 58.8066 28.9722 58.7275 29.0397C58.6484 29.1073 58.5962 29.2009 58.5801 29.3036L58.471 30.0028L58.2959 29.7495C57.7543 28.9635 56.5467 28.7001 55.341 28.7001C52.5775 28.7001 50.2167 30.7949 49.7574 33.7315C49.5182 35.1978 49.8577 36.5981 50.6889 37.5755C51.452 38.4733 52.5411 38.8471 53.839 38.8471C56.0671 38.8471 57.3024 37.4165 57.3024 37.4165L57.1906 38.1116C57.1807 38.1738 57.1845 38.2373 57.2016 38.2979C57.2187 38.3585 57.2488 38.4146 57.2897 38.4625C57.3306 38.5103 57.3814 38.5487 57.4386 38.575C57.4958 38.6013 57.558 38.6148 57.621 38.6147H59.8733C60.2303 38.6147 60.5347 38.3554 60.5906 38.0018L61.9431 29.439C61.9528 29.3768 61.949 29.3132 61.9318 29.2527C61.9146 29.1921 61.8844 29.136 61.8435 29.0881C61.8025 29.0403 61.7517 29.0019 61.6944 28.9757C61.6372 28.9494 61.575 28.9358 61.512 28.9359" fill="#003087"/>
<path d="M95.2868 33.8049C95.0443 35.2342 93.9107 36.194 92.4633 36.194C91.7379 36.194 91.1566 35.9603 90.7835 35.5184C90.413 35.0806 90.2743 34.4563 90.3915 33.7618C90.6164 32.3447 91.7689 31.3546 93.1948 31.3546C93.9054 31.3546 94.4812 31.5903 94.8625 32.0362C95.2457 32.4855 95.3966 33.1132 95.2868 33.8049V33.8049ZM98.773 28.9352H96.2715C96.1675 28.9351 96.0669 28.9721 95.9878 29.0397C95.9088 29.1073 95.8565 29.2009 95.8404 29.3036L95.7313 30.0028L95.5562 29.7495C95.0147 28.9635 93.807 28.7001 92.6014 28.7001C89.8385 28.7001 87.4777 30.7949 87.0177 33.7315C86.7786 35.1978 87.1187 36.5981 87.9499 37.5755C88.713 38.4733 89.8021 38.8471 91.1 38.8471C93.3288 38.8471 94.5641 37.4165 94.5641 37.4165L94.4523 38.1116C94.4422 38.1737 94.4458 38.2372 94.4627 38.2978C94.4797 38.3584 94.5096 38.4146 94.5504 38.4624C94.5912 38.5103 94.6419 38.5487 94.6991 38.575C94.7562 38.6013 94.8184 38.6149 94.8813 38.6147H97.133C97.4899 38.6147 97.7944 38.3554 97.851 38.0018L99.2034 29.439C99.2132 29.3768 99.2093 29.3132 99.1921 29.2526C99.1749 29.1921 99.1448 29.1359 99.1038 29.0881C99.0629 29.0403 99.012 29.0019 98.9548 28.9757C98.8976 28.9494 98.8353 28.9358 98.7724 28.9359" fill="#009CDE"/>
<path d="M74.836 28.9359H72.321C72.0806 28.9359 71.8563 29.0551 71.7216 29.2545L68.2528 34.3627L66.7825 29.4539C66.7376 29.3041 66.6457 29.1728 66.5204 29.0794C66.3951 28.986 66.243 28.9355 66.0867 28.9352H63.6155C63.5462 28.9353 63.4779 28.9518 63.4163 28.9835C63.3547 29.0152 63.3015 29.0612 63.2612 29.1176C63.2209 29.1739 63.1946 29.2391 63.1846 29.3077C63.1745 29.3762 63.1809 29.4462 63.2033 29.5118L65.9715 37.6388L63.3676 41.313C63.3216 41.3782 63.2944 41.4548 63.2889 41.5344C63.2835 41.6141 63.3 41.6937 63.3367 41.7645C63.3734 41.8354 63.4289 41.8949 63.497 41.9364C63.5652 41.9779 63.6435 41.9999 63.7233 42H66.2356C66.4727 42 66.6956 41.8835 66.8317 41.6881L75.193 29.6196C75.2384 29.5543 75.265 29.4779 75.2701 29.3986C75.2751 29.3193 75.2583 29.2401 75.2215 29.1696C75.1847 29.0992 75.1294 29.0401 75.0614 28.9989C74.9934 28.9577 74.9155 28.9359 74.836 28.9359" fill="#003087"/>
<path d="M101.721 24.4716L99.5766 38.1116C99.5669 38.1738 99.5708 38.2373 99.5879 38.2978C99.6051 38.3583 99.6351 38.4144 99.676 38.4622C99.7169 38.51 99.7677 38.5484 99.8248 38.5748C99.882 38.6011 99.9441 38.6147 100.007 38.6147H102.163C102.52 38.6147 102.824 38.3548 102.88 38.0018L104.995 24.6063C105.004 24.5442 105.001 24.4806 104.984 24.42C104.966 24.3594 104.936 24.3033 104.896 24.2555C104.855 24.2076 104.804 24.1693 104.747 24.143C104.689 24.1167 104.627 24.1031 104.564 24.1032H102.152C102.048 24.1029 101.947 24.1399 101.868 24.2074C101.789 24.2748 101.737 24.3683 101.721 24.471" fill="#009CDE"/>
<path d="M26.5693 19.486C25.4418 18.2009 23.4037 17.65 20.7964 17.65H13.2291C12.971 17.6498 12.7213 17.7418 12.525 17.9094C12.3287 18.0769 12.1986 18.309 12.1582 18.564L9.0087 38.5487C8.9941 38.6415 8.99977 38.7362 9.02532 38.8265C9.05087 38.9168 9.09569 39.0005 9.1567 39.0719C9.21771 39.1432 9.29346 39.2004 9.37872 39.2396C9.46398 39.2789 9.55674 39.2991 9.65059 39.2991H14.3223L15.4956 31.8571L15.4592 32.0901C15.4989 31.8357 15.6281 31.6038 15.8236 31.4362C16.0191 31.2687 16.268 31.1764 16.5254 31.1761H18.7454C23.1066 31.1761 26.5215 29.4047 27.519 24.2803C27.5486 24.1288 27.5742 23.9813 27.5965 23.8372C27.8928 21.9431 27.5944 20.654 26.57 19.4867" fill="#003087"/>
<path d="M16.7558 23.8621C16.7912 23.6394 16.9048 23.4365 17.0763 23.29C17.2477 23.1435 17.4658 23.0628 17.6913 23.0626H23.6239C24.3264 23.0626 24.9818 23.1084 25.5805 23.204C25.9079 23.2567 26.2318 23.3291 26.5504 23.4209C26.9123 23.5227 27.2624 23.6622 27.5951 23.8372C27.8928 21.9425 27.5938 20.654 26.5693 19.4861C25.4411 18.2016 23.4036 17.6507 20.7964 17.6507H13.2284C12.9706 17.6508 12.7212 17.743 12.5252 17.9105C12.3291 18.078 12.1992 18.31 12.1588 18.5647L9.00802 38.5474C8.99331 38.6401 8.99888 38.7349 9.02435 38.8252C9.04981 38.9156 9.09455 38.9993 9.1555 39.0707C9.21645 39.1421 9.29215 39.1994 9.37738 39.2387C9.46262 39.278 9.55536 39.2984 9.64923 39.2984H14.3216L15.4949 31.8557L16.7558 23.8621Z" fill="#003087"/>
<path d="M27.5958 23.8365C27.5727 23.9847 27.5468 24.1324 27.5183 24.2797C26.5208 29.4033 23.1059 31.1754 18.7448 31.1754H16.5241C16.2666 31.1756 16.0178 31.2679 15.8223 31.4355C15.6269 31.6031 15.4979 31.835 15.4585 32.0894L14.3216 39.2977L13.9983 41.3426C13.9854 41.4238 13.9903 41.5068 14.0127 41.5859C14.035 41.665 14.0742 41.7383 14.1276 41.8008C14.181 41.8633 14.2473 41.9135 14.322 41.9479C14.3966 41.9823 14.4778 42 14.56 42H18.4982C18.9643 42 19.3604 41.6605 19.4338 41.2005L19.4722 40.9998L20.2144 36.2957L20.2616 36.0358C20.2969 35.8128 20.4105 35.6098 20.5822 35.4633C20.7538 35.3167 20.9721 35.2362 21.1978 35.2363H21.7871C25.6021 35.2363 28.5893 33.6871 29.4622 29.204C29.8259 27.3315 29.6373 25.7669 28.6741 24.6683C28.3683 24.3277 28.0029 24.0458 27.5958 23.8365" fill="#009CDE"/>
<path d="M26.5511 23.4209C26.3989 23.3758 26.242 23.3354 26.0803 23.2997C25.9187 23.264 25.7516 23.2323 25.5805 23.2054C24.9811 23.1077 24.3264 23.0619 23.6232 23.0619H17.6913C17.4655 23.0616 17.2471 23.1422 17.0755 23.2889C16.9039 23.4357 16.7905 23.639 16.7558 23.8621L15.4949 31.8571L15.4585 32.0895C15.4979 31.8351 15.6269 31.6031 15.8223 31.4355C16.0177 31.2679 16.2666 31.1757 16.5241 31.1755H18.7447C23.1059 31.1755 26.5208 29.404 27.5183 24.2797C27.548 24.1281 27.5729 23.9813 27.5958 23.8365C27.3324 23.6987 27.058 23.5829 26.7754 23.4903C26.702 23.4661 26.6272 23.4432 26.5511 23.4203" fill="#012169"/>
</svg>
