<svg width="115" height="61" viewBox="0 0 115 61" fill="none" xmlns="http://www.w3.org/2000/svg">
<path fill-rule="evenodd" clip-rule="evenodd" d="M16.8773 15.2839V28.9113C16.8773 31.6103 18.2839 33.9808 20.4041 35.3298L27.0511 39.5087L33.6978 35.3298C35.818 33.9808 37.2248 31.6103 37.2248 28.9113V15.2839H16.8773Z" fill="#1E71B8"/>
<path fill-rule="evenodd" clip-rule="evenodd" d="M27.051 15H37.5086V28.911C37.5086 31.7315 36.0278 34.2062 33.801 35.6002L27.051 39.8418L20.3011 35.6002C18.0745 34.2062 16.5937 31.7315 16.5937 28.911V15H27.051V15ZM16.8773 15.2838V28.9112C16.8773 31.6102 18.2839 33.9808 20.4041 35.3298L27.051 39.5086L33.6978 35.3298C35.818 33.9808 37.2247 31.6102 37.2247 28.9112V15.2838H16.8773Z" fill="black"/>
<path fill-rule="evenodd" clip-rule="evenodd" d="M17.1692 38.3306C16.3607 38.0231 15.9394 38.0687 15.2334 37.7612C15.0444 37.679 14.8508 37.5562 14.669 37.4222C14.7467 37.6792 14.8155 37.9213 14.8406 38.0504C14.9089 38.4034 14.9316 38.7791 14.9316 38.9955C14.9316 39.2117 14.9431 39.2459 14.8406 39.4625C14.738 39.6787 14.7495 39.6903 14.3053 40.0772C14.1328 40.2291 13.9446 40.3622 13.7439 40.4741C14.0618 40.5729 14.4368 40.6917 14.6551 40.7665C15.0879 40.9147 15.2928 41.0398 15.7939 41.2447C15.8749 41.2778 15.9387 41.3038 15.9882 41.3247C16.0805 40.535 16.2096 39.4595 16.2096 39.4595C16.2096 39.4595 16.2343 39.3601 16.2647 39.3082C16.2953 39.256 16.3419 39.186 16.4611 39.1564C16.5367 39.1378 16.5317 39.1497 16.6928 39.1497C16.8563 39.1497 17.6755 39.1396 17.7905 39.1379C17.9056 39.1361 18.1425 39.1373 18.3095 39.1147C18.4079 39.1015 18.406 39.0906 18.4451 39.0741C18.4844 39.0572 18.5056 39.0058 18.4845 38.9529C18.4121 38.8281 17.9777 38.6382 17.1692 38.3306ZM35.6175 38.9526C35.5965 39.0056 35.6179 39.057 35.657 39.0737C35.6964 39.0904 35.6944 39.1012 35.7927 39.1144C35.9598 39.137 36.1966 39.1358 36.3114 39.1375C36.4264 39.1394 37.2455 39.1493 37.4091 39.1493C37.5704 39.1493 37.5652 39.1375 37.6409 39.1561C37.7602 39.1856 37.8066 39.2557 37.8372 39.3078C37.8678 39.3598 37.8924 39.4592 37.8924 39.4592C37.8924 39.4592 38.0214 40.5346 38.1137 41.3243C38.1629 41.3035 38.227 41.2774 38.3078 41.2444C38.8089 41.0395 39.0138 40.9144 39.4468 40.7661C39.6651 40.6914 40.0401 40.5727 40.3578 40.4738C40.1572 40.3618 39.9691 40.2287 39.7966 40.0769C39.3522 39.6898 39.3639 39.6783 39.2613 39.4621C39.1588 39.2458 39.1704 39.2115 39.1704 38.9952C39.1704 38.7788 39.1932 38.4031 39.2613 38.0501C39.2865 37.9209 39.355 37.6787 39.4327 37.4218C39.2511 37.5558 39.0573 37.6789 38.8685 37.7609C38.1625 38.0685 37.7412 38.023 36.9325 38.3302C36.1243 38.6382 35.6902 38.8281 35.6175 38.9526V38.9526ZM18.8857 39.415C18.8673 39.4184 18.8489 39.4213 18.8304 39.4237C18.6635 39.4462 18.5793 39.4573 18.4644 39.459C18.3493 39.4611 17.0918 39.466 16.9283 39.466C16.7913 39.466 16.7752 39.4587 16.7298 39.4667C17.3711 39.8217 18.0973 40.1434 18.8874 40.4248L18.8857 39.415ZM35.215 40.4248C36.0053 40.1434 36.7311 39.8217 37.3726 39.4667C37.3271 39.4587 37.3111 39.466 37.1739 39.466C37.0104 39.466 35.7529 39.4611 35.6379 39.459C35.5232 39.4573 35.4387 39.4462 35.272 39.4237C35.2535 39.4213 35.2351 39.4184 35.2167 39.415L35.215 40.4248ZM27.0511 45.2604C30.9123 45.2604 34.4756 44.515 37.3377 43.2606C37.3377 43.2606 37.4157 43.2065 37.431 43.1966C37.4463 43.1864 37.4798 43.1525 37.4958 43.1368C37.5118 43.121 37.508 43.1318 37.5573 43.0647C37.6062 42.9975 37.8163 42.7123 37.854 42.4886C37.9096 42.1589 37.9063 42.0948 37.8879 41.9194C37.8476 41.5277 37.6157 39.6396 37.6157 39.6396C35.0786 41.0783 31.2756 41.998 27.0513 41.998C22.827 41.998 19.0238 41.0783 16.4868 39.6396C16.4868 39.6396 16.255 41.5277 16.2143 41.9194C16.1962 42.0949 16.1928 42.1589 16.2486 42.4886C16.2863 42.7123 16.4964 42.9976 16.5454 43.0647C16.5944 43.1318 16.5909 43.121 16.6069 43.1368C16.6228 43.1525 16.6563 43.1864 16.6716 43.1966C16.6869 43.2067 16.7649 43.2606 16.7649 43.2606C19.6266 44.515 23.1899 45.2604 27.0511 45.2604V45.2604Z" fill="white"/>
<path fill-rule="evenodd" clip-rule="evenodd" d="M16.4484 43.4239L16.3587 43.3632C16.3435 43.3529 16.3101 43.3191 16.2943 43.3034C16.2783 43.2878 16.2818 43.2986 16.2327 43.2313C16.1837 43.1642 15.9738 42.879 15.9359 42.6553C15.8803 42.3255 15.8836 42.2615 15.9018 42.086C15.9098 42.0076 15.9272 41.8547 15.9494 41.6611C15.8548 41.6199 15.7596 41.5799 15.6639 41.5411C15.1628 41.3361 14.9579 41.2111 14.5251 41.0629C14.0924 40.9148 13 40.5731 13 40.5731C13 40.5731 13.5344 40.3911 13.9787 40.0041C14.4228 39.6167 14.4113 39.6056 14.5138 39.389C14.6164 39.1728 14.6049 39.1386 14.6049 38.9222C14.6049 38.7059 14.5821 38.3301 14.5138 37.9771C14.4455 37.624 14.0468 36.417 14.0468 36.417C14.0468 36.417 14.8169 37.2806 15.5273 37.5898C16.2333 37.8974 16.6546 37.8517 17.4633 38.1591C18.2716 38.4665 18.3969 38.5006 18.7956 38.8081C19.1942 39.1155 19.1714 39.2521 19.1714 39.2521L19.1723 40.5225C21.3921 41.2714 24.1128 41.7141 27.0511 41.7141C29.9893 41.7141 32.7102 41.2712 34.9298 40.5225L34.9308 39.2521C34.9308 39.2521 34.9081 39.1155 35.3066 38.8081C35.7051 38.5004 35.8304 38.4664 36.639 38.1591C37.4475 37.8515 37.8688 37.8972 38.575 37.5898C39.2851 37.2806 40.0554 36.417 40.0554 36.417C40.0554 36.417 39.6569 37.6238 39.5882 37.9771C39.5303 38.2889 39.4999 38.6052 39.4973 38.9222C39.4973 39.1384 39.4859 39.1727 39.5882 39.389C39.6908 39.6056 39.6795 39.6169 40.1235 40.0041C40.5676 40.3913 41.1022 40.5731 41.1022 40.5731C41.1022 40.5731 40.0099 40.915 39.5771 41.0629C39.1443 41.2111 38.9393 41.3361 38.4382 41.5411C38.2943 41.6001 38.2056 41.6381 38.1526 41.6611C38.175 41.8547 38.1924 42.0076 38.2004 42.086C38.2185 42.2617 38.2218 42.3255 38.1662 42.6553C38.1285 42.879 37.9183 43.1644 37.8695 43.2313C37.8207 43.2986 37.824 43.2878 37.808 43.3034C37.792 43.3191 37.7588 43.3529 37.7435 43.3632L37.6538 43.4239C34.7191 44.7542 31.0439 45.544 27.0509 45.544C23.0583 45.544 19.3827 44.7542 16.4484 43.4239V43.4239ZM17.1692 38.3305C16.3607 38.023 15.9394 38.0686 15.2334 37.7611C15.0444 37.6789 14.8508 37.556 14.669 37.422C14.7467 37.6791 14.8155 37.9212 14.8406 38.0503C14.9089 38.4033 14.9316 38.779 14.9316 38.9954C14.9316 39.2116 14.9431 39.2458 14.8406 39.4624C14.738 39.6786 14.7495 39.6902 14.3053 40.0771C14.1328 40.229 13.9446 40.3621 13.7439 40.474C14.0618 40.5728 14.4368 40.6916 14.6551 40.7664C15.0879 40.9146 15.2928 41.0397 15.7939 41.2447C15.8749 41.2777 15.9387 41.3037 15.9882 41.3246C16.0805 40.5349 16.2096 39.4594 16.2096 39.4594C16.2096 39.4594 16.2343 39.36 16.2647 39.3081C16.2953 39.2559 16.3419 39.1859 16.4611 39.1563C16.5367 39.1377 16.5317 39.1496 16.6928 39.1496C16.8563 39.1496 17.6755 39.1395 17.7905 39.1377C17.9056 39.136 18.1425 39.1372 18.3095 39.1146C18.4079 39.1014 18.406 39.0905 18.4451 39.074C18.4844 39.0571 18.5056 39.0057 18.4845 38.9528C18.4121 38.828 17.9777 38.6381 17.1692 38.3305ZM35.6175 38.9525C35.5965 39.0055 35.6179 39.0569 35.657 39.0736C35.6964 39.0903 35.6943 39.1011 35.7927 39.1143C35.9597 39.1369 36.1966 39.1357 36.3114 39.1374C36.4264 39.1393 37.2455 39.1492 37.4091 39.1492C37.5704 39.1492 37.5652 39.1374 37.6409 39.156C37.7602 39.1855 37.8066 39.2556 37.8372 39.3077C37.8678 39.3597 37.8924 39.4591 37.8924 39.4591C37.8924 39.4591 38.0214 40.5345 38.1137 41.3242C38.1629 41.3034 38.227 41.2773 38.3078 41.2443C38.8089 41.0394 39.0138 40.9143 39.4468 40.766C39.6651 40.6913 40.0401 40.5726 40.3578 40.4737C40.1572 40.3617 39.9691 40.2286 39.7966 40.0768C39.3522 39.6897 39.3639 39.6782 39.2613 39.462C39.1588 39.2457 39.1704 39.2114 39.1704 38.9951C39.1704 38.7787 39.1932 38.4029 39.2613 38.05C39.2865 37.9208 39.355 37.6786 39.4327 37.4217C39.2511 37.5557 39.0573 37.6787 38.8685 37.7608C38.1625 38.0684 37.7412 38.0229 36.9325 38.3301C36.1243 38.6381 35.6902 38.828 35.6175 38.9525V38.9525ZM18.8857 39.4149C18.8673 39.4183 18.8489 39.4212 18.8304 39.4236C18.6636 39.4461 18.5793 39.4572 18.4644 39.4589C18.3493 39.461 17.0918 39.4659 16.9283 39.4659C16.7913 39.4659 16.7752 39.4586 16.7298 39.4666C17.3711 39.8216 18.0973 40.1433 18.8874 40.4247L18.8857 39.4149ZM35.215 40.4247C36.0053 40.1433 36.7311 39.8216 37.3726 39.4666C37.3271 39.4586 37.3111 39.4659 37.1739 39.4659C37.0104 39.4659 35.7529 39.461 35.6379 39.4589C35.5232 39.4572 35.4387 39.4461 35.272 39.4236C35.2535 39.4212 35.2351 39.4183 35.2167 39.4149L35.215 40.4247ZM27.0511 45.2603C30.9123 45.2603 34.4756 44.5149 37.3377 43.2605C37.3377 43.2605 37.4157 43.2064 37.431 43.1965C37.4463 43.1863 37.4798 43.1524 37.4958 43.1367C37.5118 43.1209 37.508 43.1317 37.5573 43.0646C37.6062 42.9974 37.8163 42.7122 37.854 42.4885C37.9096 42.1588 37.9063 42.0947 37.8879 41.9193C37.8476 41.5276 37.6157 39.6395 37.6157 39.6395C35.0786 41.0782 31.2756 41.9979 27.0513 41.9979C22.827 41.9979 19.0238 41.0782 16.4868 39.6395C16.4868 39.6395 16.255 41.5276 16.2143 41.9193C16.1962 42.0948 16.1928 42.1588 16.2486 42.4885C16.2863 42.7122 16.4964 42.9975 16.5454 43.0646C16.5944 43.1317 16.5909 43.1209 16.6069 43.1367C16.6228 43.1524 16.6563 43.1863 16.6716 43.1965C16.6869 43.2066 16.7649 43.2605 16.7649 43.2605C19.6266 44.5149 23.1899 45.2603 27.0511 45.2603V45.2603Z" fill="black"/>
<path fill-rule="evenodd" clip-rule="evenodd" d="M17.3811 42.6528L17.5154 42.309L17.8271 41.5362C17.8997 41.3558 17.9468 41.2557 17.9682 41.2355C17.9894 41.2154 18.0215 41.214 18.0645 41.2314L18.2148 41.2922L18.2458 41.2157C18.1298 41.1747 18.0146 41.1315 17.9002 41.0862C17.8371 41.0609 17.7104 41.0065 17.5201 40.9232L17.4894 40.9995L17.6216 41.0529C17.6759 41.0748 17.7031 41.1021 17.7037 41.1347C17.7042 41.1674 17.6555 41.3049 17.5577 41.5477L17.2886 42.2152C17.1982 42.439 17.1407 42.565 17.116 42.5927C17.0912 42.6203 17.0408 42.6353 16.9647 42.6375L16.9388 42.7016C17.0625 42.743 17.1853 42.7874 17.3069 42.8348L17.8806 43.0774C18.0069 43.1283 18.1086 43.1622 18.1865 43.1796C18.2513 43.0515 18.3247 42.9151 18.4065 42.7705L18.3276 42.7385L18.1399 42.9945C18.0724 42.9862 18.0056 42.9729 17.94 42.9547C17.8509 42.9283 17.7304 42.8845 17.5784 42.8231C17.5011 42.7919 17.4246 42.7587 17.3491 42.7235L17.3811 42.6528V42.6528ZM18.9978 41.6066C19.0722 41.629 19.112 41.6565 19.1172 41.6891C19.1224 41.7216 19.0896 41.8556 19.0186 42.0911L18.9038 42.4731L18.8296 42.7103C18.7816 42.8699 18.7586 42.9861 18.7607 43.0593C18.7628 43.1323 18.7819 43.1994 18.8177 43.26C18.8535 43.3212 18.9161 43.3819 19.0053 43.443C19.0944 43.504 19.2044 43.5543 19.3357 43.5937C19.4625 43.6318 19.5783 43.6476 19.6829 43.6408C19.7876 43.634 19.8771 43.609 19.9514 43.5659C20.026 43.5226 20.0851 43.467 20.1289 43.3986C20.1727 43.3301 20.2267 43.1888 20.2916 42.9742L20.4329 42.5042C20.4972 42.2906 20.5441 42.1686 20.5738 42.1387C20.6034 42.109 20.6513 42.1041 20.7176 42.124L20.8032 42.1497L20.8269 42.0708C20.7309 42.0476 20.6354 42.0221 20.5406 41.9943C20.4937 41.9802 20.3847 41.9441 20.2132 41.8862L20.1894 41.9651L20.2546 41.9846C20.343 42.0112 20.3924 42.0431 20.4026 42.0805C20.4129 42.1177 20.3849 42.2458 20.3192 42.4644L20.177 42.937C20.1134 43.1483 20.0549 43.287 20.0012 43.3534C19.9474 43.4196 19.8818 43.4608 19.8042 43.4764C19.6918 43.4992 19.5649 43.4891 19.4238 43.4467C19.2868 43.4055 19.1846 43.3485 19.1174 43.2753C19.0501 43.2022 19.0171 43.1276 19.0186 43.0517C19.0202 42.9755 19.0478 42.8478 19.1019 42.6683L19.2496 42.1771C19.3226 41.9349 19.3715 41.8012 19.3965 41.7758C19.4215 41.7505 19.4731 41.7498 19.5517 41.7732L19.6431 41.8007L19.6669 41.7218C19.5452 41.6906 19.424 41.6574 19.3033 41.622C19.1792 41.5835 19.0556 41.5432 18.9326 41.5011L18.9088 41.58L18.9978 41.6066V41.6066ZM20.9652 43.4879C20.7516 43.6824 20.6317 43.7877 20.6049 43.8033C20.577 43.8193 20.544 43.8237 20.5128 43.8157L20.4553 43.8035L20.4381 43.8841C20.4948 43.89 20.5467 43.8979 20.5936 43.9079C20.6329 43.9163 20.6724 43.9278 20.712 43.9425C20.7681 43.8758 20.8761 43.7621 21.0361 43.6012C21.1962 43.4403 21.3186 43.3214 21.4039 43.2442L21.718 44.1565C21.7729 44.1619 21.8266 44.1702 21.8786 44.1813C21.9305 44.1924 22.0054 44.2116 22.1031 44.2385L22.1203 44.1579L22.0666 44.1466C22.0291 44.1386 22.0021 44.1236 21.9858 44.1019C21.9695 44.0802 21.9331 43.9914 21.8772 43.836L21.5986 43.0682C21.6942 42.9816 21.8582 42.8407 22.0904 42.6455C22.2131 42.5423 22.2854 42.487 22.307 42.4795C22.3285 42.4721 22.357 42.4721 22.392 42.4795L22.442 42.4903L22.4589 42.4109L22.1926 42.3542L21.5645 42.9542L21.4251 42.5414C21.3777 42.4003 21.3433 42.3073 21.3219 42.2632C21.299 42.2165 21.2709 42.1726 21.2381 42.1323L20.8491 42.1125L20.8319 42.193C20.8703 42.1966 20.8976 42.2002 20.914 42.2037C20.96 42.2136 20.9998 42.2425 21.0334 42.2906C21.093 42.3791 21.1616 42.5378 21.2397 42.7665L21.3636 43.1257L20.9652 43.4879V43.4879ZM23.5205 43.5325C23.7167 43.5579 23.83 43.5819 23.8601 43.6047C23.8901 43.6274 23.8999 43.6804 23.8891 43.7635L23.8794 43.8388L23.9677 43.8501C23.9744 43.7525 23.9839 43.6551 23.996 43.5581C24.0059 43.4804 24.0224 43.3765 24.0452 43.2465L23.9571 43.2354L23.9463 43.3195C23.9367 43.394 23.9173 43.4366 23.8882 43.4472C23.8592 43.458 23.7417 43.4502 23.5358 43.4236C23.46 43.4134 23.3847 43.4006 23.3098 43.3852L23.3435 43.1224L23.3719 42.9232C23.3849 42.8424 23.3962 42.7613 23.4058 42.6801C23.5368 42.6865 23.6616 42.6973 23.7801 42.7126C23.9289 42.7317 24.0518 42.7668 24.1491 42.8181C24.1495 42.8981 24.1441 42.9781 24.1328 43.0574L24.2211 43.0687C24.2457 42.9046 24.281 42.7732 24.3271 42.6747C24.2468 42.6573 24.1658 42.6438 24.0843 42.6342L23.8479 42.6054L23.3486 42.5489C23.2902 42.5409 23.232 42.5319 23.1739 42.5218L23.037 42.4995L22.8967 42.4814L22.8861 42.5631L22.9846 42.5864C23.0462 42.6005 23.0825 42.6121 23.0936 42.6215C23.1048 42.6312 23.113 42.644 23.1172 42.6582C23.1218 42.6735 23.1221 42.7187 23.1183 42.7936C23.1145 42.8685 23.1047 42.9646 23.0898 43.0814L22.9982 43.7939C22.9742 43.9797 22.9554 44.0996 22.9421 44.1532C22.9287 44.2069 22.9111 44.2399 22.8897 44.2521C22.8684 44.2642 22.82 44.2653 22.7448 44.2557L22.7046 44.2505L22.694 44.3323C22.8626 44.3478 22.9977 44.3621 23.0988 44.3751C23.2042 44.3887 23.3691 44.413 23.5933 44.4481L23.7965 44.4782C23.8926 44.4905 23.991 44.4988 24.0914 44.503L24.0964 44.4441C24.1044 44.3808 24.1326 44.2555 24.1804 44.0685L24.0947 44.0578C24.0575 44.169 24.0231 44.2613 23.9916 44.3346C23.9459 44.3453 23.8991 44.3508 23.8521 44.3511C23.7698 44.3501 23.6877 44.344 23.6062 44.3327C23.4704 44.3156 23.3353 44.2933 23.2012 44.266C23.2054 44.2128 23.2149 44.129 23.2297 44.0147L23.2519 43.8311L23.293 43.5127C23.372 43.5166 23.4478 43.5232 23.5205 43.5325V43.5325ZM25.3817 42.8626C25.4907 42.8698 25.5993 42.8809 25.7074 42.8959C25.7403 42.9008 25.7611 42.909 25.77 42.9206C25.7789 42.9323 25.7837 42.9677 25.7846 43.0273L25.7856 43.199L25.868 43.2049C25.8802 43.0685 25.8998 42.9272 25.9266 42.7812L25.2043 42.7399C25.1215 42.734 24.8455 42.7114 24.3761 42.6723C24.3784 42.7905 24.3771 42.8808 24.3728 42.9436L24.3592 43.0988L24.4414 43.1045L24.4719 42.9309C24.4835 42.8636 24.5007 42.8257 24.523 42.8172C24.5454 42.8087 24.6637 42.812 24.8782 42.8273L25.011 42.8365C25.0078 42.9717 25.0014 43.1069 24.9917 43.2418L24.9394 43.9868C24.9312 44.1184 24.9175 44.2497 24.8985 44.3801C24.8911 44.4243 24.878 44.4533 24.8596 44.4672C24.8412 44.4813 24.8031 44.4862 24.7458 44.4823L24.6361 44.4745L24.6304 44.5569C24.7823 44.5612 24.9121 44.5675 25.0199 44.575C25.1269 44.5826 25.2573 44.5948 25.4107 44.6116L25.4165 44.5294L25.3186 44.5225C25.2333 44.5166 25.1848 44.4988 25.1728 44.4695C25.1608 44.4403 25.1646 44.2873 25.1841 44.0107L25.2364 43.2668C25.2467 43.1224 25.2611 42.9853 25.2799 42.8555L25.3817 42.8626V42.8626ZM27.3153 44.6759C27.3492 44.5546 27.4072 44.3925 27.4891 44.1897L27.9239 43.1104C27.9721 42.9908 28.0058 42.9208 28.024 42.9013C28.0426 42.8815 28.0729 42.8714 28.1149 42.8713L28.1672 42.8709L28.1669 42.7885C28.0687 42.7946 27.9703 42.7982 27.872 42.7993C27.7972 42.7997 27.7021 42.7971 27.586 42.7917L27.5867 42.874L27.699 42.8852L27.7527 42.8888C27.8002 42.8902 27.8243 42.9107 27.8247 42.9503C27.825 42.9994 27.768 43.1686 27.654 43.458L27.3132 44.3254L26.9518 43.4198L26.78 42.9682C26.7759 42.9558 26.7736 42.9429 26.7732 42.9298C26.7732 42.9123 26.7796 42.8992 26.7925 42.8907C26.8055 42.8824 26.834 42.878 26.8783 42.8779L27.0076 42.877L27.0071 42.7946C26.8663 42.8016 26.7455 42.8052 26.6449 42.8057C26.5493 42.8063 26.4336 42.8038 26.2971 42.7984L26.2977 42.881L26.3512 42.8807C26.4148 42.8803 26.4525 42.888 26.4638 42.9036C26.4751 42.9192 26.5149 43.0115 26.5832 43.1803L27.058 44.3487C27.0996 44.4505 27.1404 44.5597 27.1804 44.6765L27.3153 44.6759V44.6759Z" fill="black"/>
<path fill-rule="evenodd" clip-rule="evenodd" d="M28.9645 43.6946C29.1621 43.6814 29.2778 43.6832 29.3117 43.6995C29.3456 43.7162 29.3654 43.7662 29.3708 43.8498L29.3758 43.9254L29.4648 43.9195C29.4524 43.8226 29.4428 43.7254 29.436 43.6279C29.4298 43.5229 29.4258 43.4178 29.4242 43.3126L29.3355 43.3186L29.3413 43.4034C29.346 43.4783 29.3355 43.5236 29.3089 43.5398C29.2825 43.5561 29.1657 43.5711 28.9582 43.5848C28.892 43.5891 28.816 43.5912 28.7295 43.5909L28.7118 43.3264L28.701 43.1256C28.6983 43.0438 28.6938 42.9621 28.6874 42.8804C28.8114 42.862 28.9361 42.8485 29.0611 42.8399C29.2104 42.83 29.3381 42.8408 29.4433 42.8724C29.4572 42.9352 29.4671 43.0144 29.4735 43.1102L29.5625 43.1044C29.555 42.9386 29.5642 42.8031 29.5903 42.6974C29.5071 42.6959 29.4254 42.6983 29.3442 42.7046L29.107 42.7219L28.6063 42.7628C28.5663 42.7655 28.5072 42.7678 28.4297 42.7699L28.2908 42.7744L28.1499 42.784L28.1552 42.8662L28.2564 42.87C28.3195 42.8719 28.3572 42.8763 28.3701 42.8834C28.3826 42.8903 28.3928 42.9009 28.4003 42.9148C28.4078 42.9287 28.417 42.9729 28.4274 43.0474C28.4378 43.122 28.4471 43.2178 28.4549 43.3352L28.5027 44.052C28.5152 44.2391 28.5197 44.3603 28.5169 44.4155C28.5138 44.4706 28.5034 44.5064 28.4846 44.5226C28.466 44.5386 28.4187 44.5492 28.3431 44.5542L28.3028 44.557L28.3082 44.6394C28.4766 44.622 28.612 44.61 28.7138 44.6032C28.8197 44.5961 28.9864 44.5881 29.2128 44.5791L29.4183 44.5693C29.5166 44.5628 29.6147 44.5519 29.7121 44.5367L29.7057 44.4779C29.7017 44.4141 29.7047 44.286 29.7156 44.0931L29.6294 44.0989C29.6145 44.2153 29.5985 44.3125 29.582 44.3905C29.535 44.4112 29.4907 44.4254 29.4481 44.4336C29.3826 44.4466 29.3008 44.4565 29.2034 44.463C29.0669 44.4724 28.93 44.4766 28.7931 44.4757C28.7845 44.3918 28.7776 44.3078 28.7724 44.2237L28.7589 44.0393L28.7378 43.7188C28.8157 43.7077 28.8915 43.6995 28.9645 43.6946V43.6946ZM31.0932 43.2322C31.1693 43.1276 31.1994 43.0142 31.1837 42.8922C31.1731 42.8092 31.1439 42.7404 31.0961 42.6858C31.0483 42.6312 30.9835 42.5931 30.902 42.5714C30.8205 42.5497 30.7051 42.5483 30.5554 42.5676C30.5009 42.5746 30.4115 42.5881 30.2876 42.6083C30.1807 42.6263 30.0989 42.639 30.0418 42.6463C29.957 42.6571 29.8338 42.6698 29.6722 42.6842L29.6824 42.7661L29.7526 42.757C29.8409 42.7459 29.8948 42.7551 29.9153 42.7852C29.9353 42.8151 29.9624 42.9642 29.9968 43.2324L30.0763 43.8566C30.1157 44.1654 30.1305 44.337 30.1208 44.3712C30.1112 44.4053 30.0691 44.4272 29.9947 44.4367L29.8972 44.4491L29.9078 44.5309C30.0416 44.509 30.1757 44.4888 30.31 44.4703C30.4044 44.4583 30.5238 44.4461 30.6682 44.4338L30.6576 44.3519L30.5565 44.3649C30.476 44.3752 30.4265 44.3646 30.4075 44.3331C30.3886 44.3017 30.3597 44.1333 30.3206 43.8279L30.2405 43.2011C30.2205 43.0447 30.2073 42.8968 30.1998 42.7579C30.2832 42.7137 30.3738 42.6847 30.4673 42.6724C30.598 42.6557 30.7019 42.6743 30.7793 42.7282C30.8563 42.7821 30.9022 42.8648 30.9164 42.9764C30.9324 43.1011 30.9042 43.2056 30.8319 43.2906C30.7596 43.3756 30.6514 43.427 30.5068 43.4456C30.4695 43.4498 30.432 43.4524 30.3945 43.4534L30.387 43.4993C30.4988 43.5958 30.6046 43.6957 30.7047 43.7989L31.2435 44.3606C31.2972 44.3477 31.3486 44.338 31.398 44.3318C31.4517 44.3248 31.5148 44.3199 31.5874 44.3168L31.5768 44.235L31.5433 44.2391C31.5277 44.2412 31.512 44.2393 31.4964 44.2334C31.4807 44.2275 31.4472 44.1997 31.3959 44.15L31.1057 43.8585C30.979 43.7333 30.8558 43.6048 30.736 43.4731C30.898 43.4173 31.0174 43.337 31.0932 43.2322V43.2322ZM31.6453 44.2956C31.8897 44.2402 32.1365 44.1964 32.385 44.1646L32.3704 44.0832L32.2849 44.0984C32.2055 44.1126 32.1556 44.1039 32.1349 44.0726C32.1142 44.0413 32.0741 43.8589 32.0152 43.5247L31.9364 43.0801C31.8947 42.8448 31.8678 42.6809 31.856 42.5883C31.8478 42.5285 31.8506 42.4901 31.8634 42.4727C31.8763 42.4553 31.9133 42.4411 31.9748 42.4303L32.0746 42.4126L32.06 42.3314C31.9559 42.3564 31.8511 42.3781 31.7456 42.3964C31.606 42.4213 31.4646 42.4433 31.3207 42.4625L31.3349 42.5436L31.4395 42.5252C31.5082 42.513 31.5525 42.5235 31.5727 42.5561C31.5927 42.589 31.6332 42.777 31.6938 43.1206L31.7712 43.5573C31.8299 43.8888 31.8549 44.0752 31.8459 44.1168C31.8367 44.1583 31.7922 44.1859 31.7124 44.2002L31.6312 44.2146L31.6453 44.2956V44.2956Z" fill="black"/>
<path fill-rule="evenodd" clip-rule="evenodd" d="M33.0667 42.2345C33.1732 42.21 33.2804 42.1893 33.3883 42.1722C33.4211 42.1676 33.4435 42.1693 33.4552 42.1778C33.467 42.1865 33.4819 42.2188 33.5004 42.2755L33.5509 42.4397L33.6314 42.4216C33.6028 42.2819 33.5806 42.1409 33.5649 41.9991L32.8615 42.1686C32.7807 42.1868 32.5099 42.2452 32.0491 42.3438C32.0854 42.4562 32.1106 42.543 32.1245 42.6043L32.1565 42.7567L32.237 42.7385L32.216 42.5636C32.2078 42.4957 32.2132 42.4543 32.232 42.4397C32.2509 42.4251 32.3654 42.394 32.5752 42.3464L32.7049 42.317C32.7381 42.4355 32.7711 42.5668 32.8036 42.7105L32.9692 43.4389C33.0049 43.5961 33.0301 43.7254 33.044 43.8269C33.0497 43.8713 33.0457 43.9029 33.0321 43.9217C33.0186 43.9403 32.9837 43.9561 32.9272 43.9688L32.8203 43.9933L32.8385 44.0736C32.9852 44.0339 33.1111 44.0023 33.2167 43.9781C33.3214 43.9545 33.4496 43.9284 33.6013 43.9003L33.5831 43.8198L33.4873 43.8415C33.4041 43.8605 33.3526 43.8577 33.3325 43.833C33.3125 43.8085 33.272 43.6611 33.2106 43.3905L33.0454 42.6634C33.0144 42.5289 32.9885 42.3933 32.9677 42.2569L33.0667 42.2345V42.2345ZM34.5597 42.0541L35.1093 42.7053L34.4806 42.9025L34.5597 42.0541V42.0541ZM35.4341 43.097C35.4789 43.1523 35.5036 43.1876 35.5085 43.2025C35.5106 43.2094 35.511 43.2167 35.5097 43.2238C35.5083 43.2309 35.5052 43.2376 35.5007 43.2432C35.4942 43.2517 35.4694 43.2644 35.4263 43.2817L35.3051 43.328L35.3296 43.4067C35.4499 43.3632 35.571 43.322 35.6929 43.2831C35.7962 43.2508 35.9003 43.2213 36.0052 43.1947L35.9804 43.116C35.9152 43.133 35.8721 43.1398 35.851 43.1368C35.8281 43.1329 35.8066 43.123 35.7887 43.1083C35.7683 43.0923 35.721 43.041 35.6475 42.9545L34.5548 41.6835L34.47 41.7101C34.466 41.8139 34.4504 41.9832 34.4234 42.2183L34.3244 43.1038C34.3076 43.2525 34.2879 43.4009 34.2653 43.5489C34.2588 43.5958 34.2486 43.6269 34.235 43.6427C34.2211 43.6585 34.1855 43.6763 34.1278 43.6964L34.0908 43.7093L34.1153 43.788C34.2186 43.7487 34.3231 43.7127 34.4287 43.6801C34.5184 43.6515 34.6092 43.6261 34.7008 43.6041L34.676 43.5256L34.5517 43.5494C34.5079 43.5577 34.4794 43.5595 34.4662 43.5543C34.4533 43.5492 34.4438 43.5371 34.4377 43.5179C34.4285 43.488 34.4309 43.3978 34.4445 43.247L34.4662 43.0193L35.1882 42.7929L35.4341 43.097V43.097ZM36.3205 41.0478C36.2337 41.0635 36.1489 41.0883 36.0673 41.1217C35.8663 41.2044 35.7299 41.3191 35.6573 41.4658C35.5846 41.6125 35.581 41.7647 35.6454 41.922C35.6839 42.0146 35.7341 42.0848 35.7968 42.1319C35.8599 42.1792 35.93 42.2039 36.0073 42.2061C36.0843 42.2082 36.2174 42.179 36.4055 42.1185C36.5473 42.0734 36.6481 42.0513 36.7079 42.0522C36.7677 42.053 36.8209 42.0701 36.8674 42.1033C36.914 42.1363 36.9507 42.1853 36.9775 42.2498C37.0227 42.3603 37.0185 42.4684 36.9653 42.5744C36.9116 42.6802 36.8089 42.7649 36.6565 42.8275C36.5897 42.8554 36.5195 42.8745 36.4477 42.8843C36.3794 42.893 36.317 42.8907 36.2597 42.8775C36.2209 42.8688 36.1941 42.8568 36.1781 42.8415C36.1625 42.8262 36.1387 42.7797 36.1065 42.7013L36.0813 42.6408L35.9991 42.6747C36.0622 42.8259 36.1067 42.9531 36.1319 43.0556C36.2246 43.0534 36.3132 43.044 36.3984 43.0273C36.4835 43.0106 36.5647 42.9865 36.642 42.9547C36.8681 42.8617 37.0246 42.7289 37.1118 42.556C37.1994 42.3832 37.2095 42.2159 37.1428 42.0535C37.1099 41.9729 37.0633 41.9103 37.0039 41.8658C36.9444 41.8214 36.8803 41.7977 36.8108 41.7953C36.7416 41.7927 36.6203 41.8175 36.4475 41.8698C36.2751 41.9225 36.1587 41.9491 36.0992 41.9498C36.0408 41.9507 35.9836 41.9332 35.9357 41.8997C35.8865 41.866 35.8484 41.8167 35.822 41.7524C35.78 41.65 35.7822 41.5511 35.8295 41.4555C35.8764 41.3598 35.9642 41.2855 36.0933 41.2324C36.1724 41.1997 36.2529 41.1818 36.3347 41.1778C36.4166 41.1738 36.4708 41.1797 36.4971 41.1954C36.5233 41.211 36.5494 41.2501 36.5751 41.3132L36.6149 41.41L36.6983 41.3756C36.6431 41.2362 36.6094 41.1199 36.5975 41.0268C36.5047 41.0245 36.4119 41.0316 36.3205 41.0478V41.0478Z" fill="black"/>
<path fill-rule="evenodd" clip-rule="evenodd" d="M35.4543 23.1695C35.606 23.1829 35.7862 23.1902 35.8881 23.0749C35.9287 23.0287 35.922 22.9467 35.9254 22.881C35.9421 22.56 35.85 22.2541 35.8066 21.9319C35.7808 21.7397 35.845 21.5624 35.8962 21.3846C35.741 21.3844 35.5813 21.3403 35.4539 21.2569C35.2751 21.3961 35.2313 21.6312 35.2356 21.841C35.2452 22.2814 35.6295 22.7035 35.4553 23.1377C35.4524 23.148 35.452 23.159 35.4543 23.1695V23.1695ZM18.6468 23.1377C18.4727 22.7035 18.8568 22.2814 18.8665 21.841C18.8711 21.6312 18.8271 21.3961 18.6484 21.2569C18.521 21.3403 18.3613 21.3844 18.2059 21.3846C18.257 21.5624 18.3215 21.7397 18.2956 21.9319C18.2523 22.2541 18.1602 22.56 18.1769 22.881C18.1804 22.9467 18.1734 23.0287 18.2143 23.0749C18.3159 23.1902 18.4963 23.1829 18.6481 23.1695C18.6502 23.1589 18.6498 23.148 18.6468 23.1377V23.1377ZM26.9873 30.9181C26.9732 27.5884 26.985 21.0351 26.9828 21.0223C26.8347 20.2207 25.5407 20.0318 24.8175 20.1368C24.0945 20.2417 24.4305 20.2153 23.957 20.2782C23.7389 20.3073 23.0825 20.3043 22.6321 20.2268C22.2084 20.1538 21.7683 20.0247 21.4591 19.7278L21.4746 29.7445C21.8175 29.8999 22.7335 30.1088 23.3875 30.1345C24.581 30.1812 26.2163 29.7148 26.9873 30.9181V30.9181ZM30.7147 30.1343C31.3685 30.1086 32.2846 29.8997 32.6275 29.7443L32.6428 19.7277C32.3336 20.0245 31.8936 20.1536 31.47 20.2266C31.0195 20.3041 30.3631 20.3073 30.1451 20.2781C29.6715 20.2152 30.0076 20.2416 29.2846 20.1366C28.5616 20.0316 27.2676 20.2205 27.1194 21.0221C27.1169 21.0349 27.1289 27.5882 27.1149 30.918C27.886 29.7148 29.5212 30.1812 30.7147 30.1343V30.1343ZM18.2897 23.4008C18.2497 23.6127 18.4548 23.9046 18.6326 23.9467C18.9908 24.0313 19.3108 23.8311 19.5887 23.6299C19.5887 23.4107 19.5935 23.1771 19.5935 22.958C19.3865 23.124 19.1889 23.3113 18.9253 23.3937C18.7847 23.4377 18.6467 23.4394 18.501 23.426C18.4259 23.4192 18.2989 23.3522 18.2897 23.4008V23.4008ZM35.6011 23.4262C35.4555 23.4396 35.3173 23.4378 35.1769 23.3939C34.913 23.3113 34.7156 23.124 34.5084 22.9582C34.5084 23.1773 34.5135 23.4109 34.5135 23.63C34.7912 23.8313 35.1112 24.0315 35.4694 23.9469C35.6472 23.9048 35.8523 23.6128 35.8123 23.401C35.8031 23.3522 35.6762 23.4192 35.6011 23.4262V23.4262ZM35.0686 29.1016C35.2474 29.1778 35.4444 29.2163 35.6366 29.1553C35.733 29.1246 35.8232 29.037 35.8285 28.9412C35.8559 28.4463 35.7402 27.9363 35.9517 27.4634C35.7918 27.3953 35.6133 27.3173 35.4595 27.3458C35.3614 27.3639 35.3152 27.5241 35.2978 27.6473C35.249 27.9928 35.3423 28.3289 35.3263 28.6675C35.3199 28.8083 35.2565 28.9951 35.0863 29.0551C35.0696 29.0608 35.0191 29.0804 35.0686 29.1016ZM19.0158 29.0549C18.8458 28.9949 18.7824 28.8081 18.7758 28.6673C18.7598 28.3289 18.8531 27.9926 18.8045 27.6471C18.7871 27.5239 18.7412 27.3637 18.643 27.3456C18.489 27.3171 18.3107 27.3951 18.1506 27.4633C18.3622 27.9362 18.2466 28.4461 18.2739 28.941C18.2793 29.0368 18.3695 29.1244 18.4659 29.1552C18.6578 29.2162 18.8547 29.1776 19.0336 29.1015C19.0831 29.0804 19.0327 29.0608 19.0158 29.0549ZM18.3721 29.3434C18.406 29.5386 18.5368 29.6767 18.7077 29.7481C19.0462 29.8894 19.6328 29.5498 19.6314 29.4232L19.6368 28.8359C19.3148 29.1856 18.8278 29.52 18.3717 29.3251C18.3717 29.3314 18.371 29.3373 18.3721 29.3434V29.3434ZM35.7304 29.3253C35.2742 29.52 34.787 29.1856 34.4653 28.8361L34.4707 29.4233C34.469 29.55 35.0556 29.8896 35.3943 29.7483C35.565 29.6771 35.696 29.5387 35.7301 29.3436C35.7311 29.3373 35.7304 29.3314 35.7304 29.3253V29.3253ZM27.7991 32.1144C27.8779 32.053 27.8817 31.9571 27.8711 31.8641C27.8629 31.7909 27.7678 31.7066 27.7465 31.7207C27.5275 31.8641 27.308 31.9519 27.0511 31.9592C26.7944 31.9519 26.5745 31.8641 26.3559 31.7207C26.3343 31.7066 26.2394 31.7909 26.2311 31.8641C26.2206 31.9571 26.2243 32.0532 26.303 32.1144C26.4963 32.2647 26.7718 32.3278 27.0511 32.3318C27.3302 32.3276 27.6059 32.2647 27.7991 32.1144ZM26.2961 31.6184L26.2199 31.4835L20.2766 31.5108L19.9905 31.7821L26.2961 31.6184V31.6184ZM34.1116 31.7819L33.8256 31.5106L27.8824 31.4833L27.8062 31.6182L34.1116 31.7819V31.7819ZM20.2081 31.4506L20.0633 20.6422L19.771 20.906L19.8675 31.7956L20.2081 31.4506ZM34.2345 31.7956L34.3313 20.906L34.0386 20.6422L33.894 31.4506L34.2345 31.7956ZM20.5184 20.8045L20.2142 20.6288L20.3086 31.3987L26.0979 31.3497L25.9942 31.1738L20.5482 31.182L20.5184 20.8045V20.8045ZM33.5539 31.182L28.108 31.1738L28.004 31.3497L33.7936 31.3987L33.8879 20.6288L33.5838 20.8045L33.5539 31.182Z" fill="white"/>
<path fill-rule="evenodd" clip-rule="evenodd" d="M21.2919 29.8891L21.2939 19.8895L20.6868 20.7484L20.7182 30.9312C20.7695 30.9333 21.2612 30.1549 21.2919 29.8891ZM33.3841 30.9312L33.4154 20.7484L32.8085 19.8895L32.8102 29.8891C32.841 30.1549 33.3326 30.9333 33.3841 30.9312V30.9312ZM20.9162 30.9498C22.6485 31.0556 26.1042 31.004 26.1042 31.004C26.2971 31.2873 26.5888 31.6776 26.9822 31.5888C27.0142 31.2067 26.8168 30.8441 26.4813 30.6446C26.2053 30.4804 25.9088 30.4135 25.5981 30.3763C24.5568 30.2513 23.5542 30.5356 22.4915 30.33C22.2294 30.2793 21.4023 29.9317 21.4524 29.9788C21.4798 30.0052 21.1128 30.6498 20.9162 30.9498V30.9498ZM32.6499 29.979C32.6998 29.9319 31.8729 30.2795 31.6108 30.3302C30.548 30.5358 29.5455 30.2515 28.5041 30.3764C28.1935 30.4136 27.8968 30.4805 27.6208 30.6448C27.2854 30.8441 27.0881 31.2067 27.1201 31.589C27.5136 31.6778 27.8052 31.2875 27.9979 31.0042C27.9979 31.0042 31.4537 31.056 33.186 30.95C32.9894 30.6498 32.6225 30.0052 32.6499 29.979Z" fill="#FFF22D"/>
<path fill-rule="evenodd" clip-rule="evenodd" d="M27.307 20.2919C27.3633 20.2357 27.4109 20.1782 27.4722 20.1273C27.9175 19.7581 28.4897 19.695 29.0368 19.7507C30.2555 19.8744 31.6649 20.2698 32.6884 19.4133C33.0204 19.7746 33.2454 20.2098 33.5364 20.5998C33.6766 20.5067 33.8306 20.4351 33.9606 20.3259C34.1815 20.482 34.356 20.6898 34.5689 20.8553L34.538 22.6348C34.5839 22.9027 34.9569 23.1017 35.2325 23.1372C35.2635 22.9606 35.2739 22.7788 35.22 22.6118C35.1463 22.3824 35.0584 22.1706 35.0198 21.9311C34.9597 21.5572 35.0935 21.1879 35.3617 20.9283C35.6024 21.1184 35.9163 21.1445 36.21 21.1657C36.0423 21.5256 36.0209 21.9252 36.0796 22.3131C36.133 22.6673 36.1858 23.0029 36.0963 23.3555C36.0126 23.6852 35.9065 24.0696 35.5436 24.1688C35.1889 24.266 34.847 24.105 34.5321 23.9585L34.5243 28.4221C34.5246 28.598 34.7087 28.8312 34.9007 28.9238C35.233 28.6869 35.0193 28.2399 35.0511 27.9017C35.0799 27.5988 35.1932 27.3089 35.3987 27.08C35.6686 27.1815 35.955 27.206 36.2282 27.2992C36.1488 27.5359 36.0113 27.761 36.0212 28.0105C36.0466 28.6593 36.1184 29.3965 35.6149 29.9045C35.2772 30.245 34.8053 29.9542 34.4584 29.7669L34.4544 32.0291L28.1469 31.8936C28.113 32.2064 27.9646 32.5297 27.653 32.6428C27.4973 32.6995 27.252 32.7593 27.0513 32.75C26.8505 32.7408 26.6055 32.6995 26.4496 32.6428C26.1381 32.5298 25.9897 32.2064 25.9556 31.8936L19.6482 32.0291L19.644 29.7669C19.2969 29.9541 18.8252 30.245 18.4875 29.9045C17.984 29.3965 18.0558 28.6593 18.0813 28.0105C18.0911 27.761 17.9538 27.5361 17.874 27.2992C18.1474 27.206 18.4338 27.1815 18.7037 27.08C18.9093 27.3089 19.0225 27.5988 19.0513 27.9017C19.0835 28.2399 18.8695 28.6869 19.2017 28.9238C19.3937 28.8312 19.5778 28.598 19.5783 28.4221L19.5705 23.9585C19.2555 24.105 18.9138 24.266 18.5589 24.1688C18.196 24.0696 18.0904 23.6852 18.0064 23.3555C17.9167 23.0029 17.9696 22.6674 18.0231 22.3131C18.0817 21.9252 18.0603 21.5256 17.8928 21.1657C18.1863 21.1445 18.5002 21.1184 18.7409 20.9283C19.0091 21.1878 19.1429 21.5571 19.0828 21.9311C19.044 22.1706 18.9561 22.3824 18.8824 22.6118C18.8287 22.7788 18.8389 22.9606 18.8699 23.1372C19.1457 23.1017 19.5187 22.9027 19.5646 22.6348L19.5336 20.8553C19.7464 20.6898 19.921 20.482 20.1419 20.3259C20.2718 20.4351 20.4258 20.5067 20.566 20.5998C20.857 20.2098 21.0822 19.7745 21.4142 19.4133C22.4375 20.2698 23.8472 19.8744 25.0658 19.7507C25.6131 19.695 26.1847 19.7581 26.6303 20.1273C26.6919 20.1782 26.7393 20.2357 26.7956 20.2919C26.9081 20.4038 26.9958 20.528 27.0513 20.6869C27.1067 20.528 27.1942 20.4036 27.307 20.2919V20.2919ZM35.4543 23.1695C35.606 23.1829 35.7863 23.1902 35.8881 23.075C35.9288 23.0287 35.922 22.9467 35.9255 22.881C35.9422 22.56 35.85 22.2542 35.8066 21.9319C35.7809 21.7397 35.845 21.5625 35.8963 21.3847C35.7411 21.3845 35.5813 21.3403 35.454 21.2569C35.2751 21.3961 35.2313 21.6313 35.2357 21.841C35.2452 22.2814 35.6295 22.7036 35.4553 23.1377C35.4524 23.1481 35.452 23.159 35.4543 23.1695V23.1695ZM18.6469 23.1377C18.4727 22.7036 18.8568 22.2814 18.8666 21.841C18.8711 21.6313 18.8271 21.3961 18.6485 21.2569C18.5211 21.3403 18.3613 21.3845 18.206 21.3847C18.257 21.5625 18.3215 21.7397 18.2956 21.9319C18.2524 22.2542 18.1602 22.56 18.1769 22.881C18.1804 22.9467 18.1734 23.0287 18.2143 23.075C18.316 23.1902 18.4964 23.1829 18.6481 23.1695C18.6503 23.159 18.6499 23.1481 18.6469 23.1377V23.1377ZM26.9873 30.9181C26.9733 27.5884 26.9851 21.0352 26.9828 21.0223C26.8347 20.2208 25.5408 20.0319 24.8176 20.1368C24.0946 20.2418 24.4305 20.2154 23.9571 20.2783C23.739 20.3073 23.0825 20.3044 22.6322 20.2269C22.2085 20.1539 21.7684 20.0247 21.4592 19.7279L21.4747 29.7445C21.8176 29.8998 22.7335 30.1087 23.3875 30.1345C24.581 30.1812 26.2163 29.7147 26.9873 30.9181V30.9181ZM30.7147 30.1343C31.3685 30.1086 32.2847 29.8997 32.6276 29.7443L32.6429 19.7277C32.3337 20.0246 31.8936 20.1537 31.47 20.2267C31.0196 20.3042 30.3631 20.3073 30.1451 20.2781C29.6715 20.2152 30.0077 20.2416 29.2847 20.1367C28.5616 20.0317 27.2677 20.2206 27.1194 21.0221C27.117 21.035 27.129 27.5882 27.1149 30.9179C27.8861 29.7147 29.5212 30.1812 30.7147 30.1343V30.1343ZM18.2897 23.4008C18.2497 23.6127 18.4548 23.9047 18.6326 23.9467C18.9908 24.0314 19.3108 23.8312 19.5887 23.6299C19.5887 23.4107 19.5936 23.1772 19.5936 22.958C19.3866 23.124 19.189 23.3113 18.9253 23.3937C18.7847 23.4377 18.6467 23.4394 18.5011 23.426C18.426 23.4193 18.2989 23.3522 18.2897 23.4008V23.4008ZM35.6012 23.4262C35.4555 23.4396 35.3173 23.4379 35.1769 23.3939C34.9131 23.3113 34.7156 23.124 34.5085 22.9582C34.5085 23.1773 34.5135 23.4109 34.5135 23.6301C34.7912 23.8313 35.1112 24.0315 35.4694 23.9469C35.6472 23.9048 35.8523 23.6129 35.8123 23.401C35.8031 23.3522 35.6762 23.4193 35.6012 23.4262V23.4262ZM35.0686 29.1016C35.2475 29.1777 35.4444 29.2163 35.6366 29.1553C35.7331 29.1245 35.8233 29.037 35.8285 28.9412C35.856 28.4462 35.7402 27.9363 35.9517 27.4634C35.7918 27.3953 35.6133 27.3173 35.4595 27.3458C35.3615 27.3638 35.3153 27.5241 35.2979 27.6473C35.249 27.9928 35.3424 28.3289 35.3264 28.6675C35.3199 28.8082 35.2565 28.9951 35.0864 29.055C35.0697 29.0608 35.0191 29.0804 35.0686 29.1016ZM19.0159 29.0549C18.8459 28.9949 18.7825 28.8081 18.7758 28.6673C18.7599 28.3289 18.8532 27.9926 18.8045 27.6471C18.7871 27.5239 18.7413 27.3637 18.6431 27.3456C18.4891 27.3171 18.3108 27.3951 18.1507 27.4633C18.3622 27.9361 18.2466 28.4461 18.2739 28.941C18.2793 29.0368 18.3695 29.1244 18.466 29.1551C18.6578 29.2161 18.8548 29.1776 19.0336 29.1014C19.0831 29.0804 19.0327 29.0608 19.0159 29.0549ZM18.3721 29.3434C18.406 29.5385 18.5369 29.6767 18.7077 29.7481C19.0463 29.8894 19.6329 29.5498 19.6315 29.4231L19.6369 28.8359C19.3148 29.1855 18.8278 29.5199 18.3718 29.3251C18.3718 29.3314 18.3711 29.3373 18.3721 29.3434V29.3434ZM35.7305 29.3253C35.2742 29.5199 34.7871 29.1855 34.4654 28.836L34.4707 29.4233C34.469 29.55 35.0556 29.8896 35.3943 29.7483C35.565 29.677 35.6961 29.5387 35.7301 29.3435C35.7312 29.3373 35.7305 29.3314 35.7305 29.3253V29.3253ZM27.7992 32.1143C27.8779 32.053 27.8817 31.957 27.8711 31.864C27.8629 31.7909 27.7679 31.7066 27.7465 31.7207C27.5275 31.864 27.308 31.9518 27.0511 31.9591C26.7944 31.9518 26.5745 31.864 26.3559 31.7207C26.3344 31.7066 26.2395 31.7909 26.2311 31.864C26.2207 31.957 26.2243 32.0531 26.3031 32.1143C26.4963 32.2646 26.7718 32.3277 27.0511 32.3317C27.3302 32.3276 27.6059 32.2646 27.7992 32.1143ZM26.2961 31.6183L26.22 31.4834L20.2766 31.5107L19.9906 31.782L26.2961 31.6183V31.6183ZM34.1117 31.7818L33.8256 31.5105L27.8824 31.4833L27.8063 31.6181L34.1117 31.7818V31.7818ZM20.2082 31.4506L20.0634 20.6422L19.771 20.906L19.8675 31.7956L20.2082 31.4506ZM34.2346 31.7956L34.3314 20.906L34.0387 20.6422L33.8941 31.4506L34.2346 31.7956ZM20.5184 20.8045L20.2142 20.6288L20.3086 31.3986L26.098 31.3496L25.9942 31.1737L20.5483 31.1819L20.5184 20.8045V20.8045ZM33.5539 31.1819L28.108 31.1737L28.0041 31.3496L33.7936 31.3986L33.888 20.6288L33.5838 20.8045L33.5539 31.1819ZM21.292 29.8891L21.2939 19.8895L20.6868 20.7484L20.7183 30.9311C20.7695 30.9332 21.2612 30.1548 21.292 29.8891V29.8891ZM33.3841 30.9311L33.4154 20.7484L32.8085 19.8895L32.8102 29.8891C32.841 30.1548 33.3327 30.9332 33.3841 30.9311ZM20.9162 30.9497C22.6485 31.0556 26.1042 31.0039 26.1042 31.0039C26.2972 31.2872 26.5888 31.6776 26.9823 31.5888C27.0143 31.2066 26.8168 30.8441 26.4814 30.6445C26.2054 30.4803 25.9089 30.4134 25.5981 30.3762C24.5569 30.2512 23.5542 30.5356 22.4916 30.33C22.2295 30.2792 21.4024 29.9316 21.4524 29.9787C21.4799 30.0052 21.1128 30.6498 20.9162 30.9497V30.9497ZM32.65 29.9789C32.6999 29.9318 31.8729 30.2794 31.6108 30.3301C30.548 30.5357 29.5455 30.2514 28.5041 30.3764C28.1935 30.4136 27.8968 30.4805 27.6208 30.6447C27.2854 30.8441 27.0881 31.2066 27.1201 31.5889C27.5136 31.6777 27.8052 31.2874 27.998 31.0041C27.998 31.0041 31.4537 31.0559 33.186 30.9499C32.9894 30.6498 32.6225 30.0052 32.65 29.9789V29.9789Z" fill="black"/>
<path fill-rule="evenodd" clip-rule="evenodd" d="M28.3968 22.3313C28.1707 22.3355 27.9032 22.3859 27.7576 22.2095C27.707 22.1483 27.7487 22.0189 27.6849 21.9323C27.581 22.0119 27.6144 22.1389 27.5838 22.2451C27.5382 22.4033 27.5784 22.5755 27.6486 22.7073C27.8693 23.1205 28.3805 22.9012 28.7807 22.9697C28.827 22.9775 28.8704 23.0079 28.8791 23.0314C29.0686 23.5385 28.914 24.0764 28.93 24.5973C28.9304 24.6039 28.9545 24.6161 28.9606 24.6122C29.1174 24.5118 29.2359 24.3901 29.3235 24.2301C29.3299 24.2184 29.3164 24.184 29.3093 24.1835C29.2533 24.18 29.2006 24.1465 29.1946 24.1199C29.087 23.6513 29.2437 23.2104 29.1539 22.7373C29.1219 22.5689 29.0314 22.4212 28.8525 22.3736C28.6992 22.3329 28.5531 22.3286 28.3968 22.3313V22.3313ZM29.7292 22.3402C29.6379 22.3428 29.5251 22.3433 29.4596 22.2578C29.3887 22.1652 29.4742 22.0491 29.4189 21.9505C29.2676 22.0454 29.2818 22.2236 29.2448 22.3725C29.2093 22.5166 29.2228 22.6684 29.2832 22.8039C29.3758 23.0107 29.619 23.0286 29.8206 23.0823C29.9516 23.5832 29.8305 24.0936 29.843 24.5973C29.8434 24.6098 29.8687 24.6312 29.8726 24.6289C29.9911 24.5572 30.0756 24.4577 30.1447 24.3392C30.2028 24.2403 30.0759 24.1887 30.0592 24.1183C29.9819 23.7864 30.0436 23.4575 30.0076 23.1166C29.9958 23.0032 30.0917 22.8812 30.1254 22.7523C30.1911 22.502 29.9798 22.3332 29.7292 22.3402V22.3402ZM31.2472 22.9502C31.0758 22.8466 30.9032 22.7717 30.7563 22.639C30.6022 22.4992 30.7118 22.2757 30.6057 22.115C30.4718 22.3098 30.4047 22.5444 30.4006 22.7724C30.3962 23.0283 30.5862 23.2377 30.7881 23.3929C30.6802 23.5234 30.5339 23.6253 30.483 23.7961C30.4228 23.9977 30.5346 24.1849 30.537 24.3788C30.538 24.4532 30.4398 24.5114 30.35 24.5128C30.2994 24.5137 30.2471 24.5867 30.2688 24.6016C30.4675 24.7377 30.7084 24.6486 30.9305 24.5999C31.0249 24.5792 31.0791 24.4572 31.0676 24.3622C31.0356 24.0973 30.6121 23.8349 30.8611 23.5757C31.3202 23.5081 31.7345 23.9007 31.9427 24.277C32.0058 24.391 31.9173 24.5372 31.9563 24.671C32.2295 24.4763 32.3106 24.0714 32.2309 23.7398C32.1906 23.5703 32.0442 23.4914 31.9563 23.3566C32.091 23.087 32.3936 22.7585 32.166 22.4695C32.0897 22.372 31.9271 22.3581 31.8876 22.2236C31.8648 22.1457 31.9196 22.0686 31.8987 21.9883C31.893 21.9665 31.8596 21.9493 31.8509 21.9563C31.6785 22.0908 31.5496 22.3016 31.5852 22.5149C31.6158 22.6991 31.7896 22.8124 31.8819 22.9667C31.9225 23.0349 31.9057 23.2629 31.7967 23.242C31.5948 23.2031 31.4326 23.0622 31.2472 22.9502V22.9502ZM26.2903 24.5825C26.2656 24.5945 26.2264 24.6183 26.2264 24.6159C26.2335 24.0922 26.3407 23.5782 26.2688 23.0462C26.2644 23.014 26.2427 22.9853 26.2146 22.9768C26.0373 22.9233 25.7578 22.9681 25.7182 22.7514C25.6664 22.4679 25.7303 22.1953 25.8383 21.9349C25.8409 21.929 25.8812 21.924 25.8843 21.9511C25.8965 22.055 25.8471 22.185 25.9033 22.2462C26.0086 22.3605 26.2001 22.3007 26.3605 22.3237C26.5635 22.3525 26.5924 22.5898 26.5371 22.7514C26.517 22.811 26.47 22.8673 26.4462 22.9231C26.4089 23.0105 26.4782 23.1122 26.4848 23.2106C26.5058 23.5154 26.4469 23.8128 26.4923 24.1227C26.5006 24.1805 26.5535 24.2335 26.5363 24.2846C26.4954 24.4058 26.416 24.5215 26.2903 24.5825V24.5825ZM25.506 24.4895C25.4681 24.5387 25.4083 24.5839 25.3627 24.5537C25.3139 24.5212 25.3341 24.4517 25.3447 24.3978C25.4337 23.9423 25.4816 23.4951 25.3395 23.0641C25.0901 22.9306 24.7838 22.933 24.521 23.035C24.374 23.092 24.3008 23.2756 24.3507 23.4051C24.4597 23.6883 24.7619 23.928 24.6646 24.269C24.6264 24.4028 24.5309 24.4977 24.4063 24.5344C24.1729 24.603 23.9341 24.5488 23.6967 24.5608C23.6346 24.4079 23.7127 24.2322 23.8171 24.1343C23.9461 24.0137 24.2292 24.2309 24.2714 24.0434C24.2972 23.9296 24.1333 23.8176 24.1115 23.6824C24.0717 23.4341 24.219 23.2179 24.3114 22.9989C24.3326 22.9488 24.1739 22.9687 24.1189 22.8977C24.0744 22.8389 24.0452 22.77 24.0337 22.6972C23.9821 22.4135 23.9915 22.1275 24.1348 21.8774C24.2372 21.9285 24.1646 22.0993 24.1658 22.1874C24.1677 22.3246 24.3476 22.3369 24.4656 22.3602C24.7941 22.425 25.1135 22.3374 25.4276 22.436C25.4863 22.4544 25.5376 22.523 25.5513 22.5908C25.6723 23.1918 25.5989 23.7575 25.604 24.3418C25.6043 24.3967 25.5444 24.4393 25.506 24.4895V24.4895Z" fill="black"/>
<path fill-rule="evenodd" clip-rule="evenodd" d="M23.6597 23.9949C23.8347 23.6565 23.928 23.3033 23.8547 22.9194C23.7888 22.575 23.4334 22.4896 23.1311 22.4238C22.8586 22.3647 22.8692 22.1035 22.8656 21.8777C22.8643 21.8021 22.7905 21.8666 22.7785 21.8855C22.6639 22.0676 22.5641 22.2585 22.4799 22.4564C22.4676 22.4851 22.4462 22.5717 22.4085 22.5427C22.2961 22.455 22.2032 22.3449 22.1358 22.2194C22.0991 22.1523 22.1457 22.0659 22.141 21.9874C22.1403 21.9743 22.1184 21.9533 22.1095 21.9554C21.9802 21.9888 21.911 22.0958 21.857 22.2081C21.7981 22.3303 21.7239 22.4559 21.7367 22.5884C21.7557 22.7832 21.984 22.8259 22.0894 22.9914C22.1271 23.0506 22.1246 23.1362 22.097 23.1612C21.7906 23.4368 21.9307 23.8894 21.9324 24.2324C21.9328 24.3067 21.8617 24.3755 21.8433 24.4535C21.8358 24.485 21.7896 24.5481 21.8347 24.5491C22.041 24.5536 22.1457 24.2936 22.1761 24.1037C22.2102 23.8906 22.1189 23.6904 22.1396 23.4851C22.1658 23.2244 22.3476 23.0223 22.4917 22.8084C22.8664 22.9565 23.3713 22.9841 23.5583 23.3972C23.6499 23.5995 23.5731 23.8214 23.4775 24.0131C23.0941 24.0364 22.7074 23.9662 22.3275 24.0314C22.2826 24.2095 22.1323 24.3682 22.1631 24.5606C22.5649 24.5441 22.9792 24.6681 23.3593 24.5361C23.5439 24.4723 23.5623 24.1831 23.6597 23.9949V23.9949ZM23.9157 26.153C24.2318 26.1522 24.5674 26.0912 24.8466 26.2768C25.163 26.8929 24.9576 27.571 24.8314 28.2271C24.8307 28.2307 24.7974 28.2869 24.7553 28.2843C24.2177 28.2516 23.6836 28.2375 23.1487 28.1934C23.1833 27.7863 23.2034 27.3797 23.2144 26.9707C23.2175 26.8545 23.3025 26.7523 23.3494 26.6419C23.2724 26.612 23.2538 26.5395 23.2298 26.4745C23.141 26.2338 23.1421 25.9212 23.3367 25.7349C23.363 25.7097 23.4148 25.734 23.4219 25.7839C23.433 25.8619 23.3673 25.9245 23.3878 26.0025C23.3948 26.0288 23.4056 26.0625 23.4247 26.0705C23.5808 26.136 23.7471 26.1534 23.9157 26.153V26.153ZM24.7205 27.6011C24.8135 27.4163 24.7723 27.1927 24.7209 26.993C24.6912 26.8781 24.5728 26.8004 24.4442 26.7738C24.1312 26.7095 23.8354 26.7815 23.5323 26.7333C23.3242 26.9808 23.4615 27.332 23.4228 27.6277C23.697 27.6174 23.9702 27.653 24.244 27.6395C24.4065 27.6315 24.6436 27.7544 24.7205 27.6011ZM25.5557 26.6654C25.6765 26.734 25.6606 26.8969 25.6695 27.0251C25.6718 27.0557 25.7074 27.084 25.7157 27.074C25.8859 26.8684 25.9385 26.6184 25.9804 26.3652C26.0095 26.1907 25.8268 26.0941 25.6697 26.035C25.519 25.9782 25.535 25.8157 25.5548 25.6737C25.559 25.6445 25.5225 25.6144 25.5091 25.6259C25.3544 25.7578 25.3021 25.9506 25.2367 26.133C25.2065 26.2177 25.1919 26.3176 25.2357 26.4012C25.3024 26.5291 25.4307 26.5946 25.5557 26.6654ZM30.3429 26.376C30.4647 26.4883 30.4981 26.6436 30.5102 26.8065C30.538 27.1767 30.4906 27.5302 30.4087 27.8981C30.3748 28.0496 30.4051 28.213 30.2954 28.3395C29.7537 28.3713 29.2159 28.3851 28.6721 28.327C28.6464 28.3242 28.6194 28.2589 28.6368 28.2128C28.7903 27.8009 28.661 27.3746 28.7818 26.9527C28.8063 26.867 28.8979 26.7674 28.8694 26.7309C28.7607 26.5926 28.697 26.4245 28.734 26.2604C28.774 26.0816 28.7842 25.8807 28.9491 25.7731C28.9538 25.77 28.9886 25.7994 28.9954 25.8216C29.03 25.932 28.9469 26.0859 29.0752 26.1426C29.2232 26.2078 29.3864 26.188 29.547 26.1852C29.8242 26.1805 30.1291 26.1796 30.3429 26.376V26.376ZM29.7476 27.7728C29.9177 27.7538 30.1098 27.8197 30.2587 27.7372C30.3036 27.4646 30.42 27.1301 30.1889 26.9335C29.8826 26.6735 29.4627 26.8218 29.0898 26.8074C28.9851 26.8034 28.9712 26.9639 28.958 27.0635C28.9264 27.3004 28.9135 27.5415 28.9994 27.7737C29.2488 27.8103 29.4949 27.8008 29.7476 27.7728V27.7728ZM31.0059 26.7175C30.915 26.6741 30.814 26.6398 30.7761 26.5481C30.6614 26.2707 30.8841 26.0265 30.9974 25.7879C31.0077 25.7669 31.0551 25.7983 31.0558 25.8206C31.0579 25.9179 31.0309 26.0048 31.0871 26.0898C31.1634 26.2066 31.3396 26.1953 31.3998 26.3178C31.5369 26.5978 31.3674 26.8824 31.2192 27.1303C31.2096 27.1457 31.1568 27.1807 31.1397 27.133C31.1145 27.0635 31.1811 26.9992 31.1795 26.9341C31.1766 26.8348 31.1017 26.763 31.0059 26.7175V26.7175Z" fill="black"/>
<path d="M63.2363 20.8331L57.4724 30.5443V37.0769C58.1359 38.6487 59.8129 38.8581 61.42 38.9282V39.8363H50.1361V38.9282C51.7431 38.8581 53.6994 38.6139 54.2234 37.5661V30.8237L48.3544 20.9028C47.3415 19.2261 46.3634 18.6674 44.4069 18.5275V17.6194H54.2235V18.5275C52.3719 18.6322 51.7781 18.9818 51.2542 19.4012L56.7039 28.8325L62.0488 19.4358C61.4898 19.0167 60.7563 18.6322 58.9048 18.5276V17.6195H67.2888V18.5276C65.4024 18.5976 64.2146 19.2261 63.2363 20.8331ZM74.6946 40.1508C72.8084 40.1508 71.9 38.8581 71.8301 37.9502C70.6422 39.2076 69.1054 40.1508 67.6381 40.1508C65.7517 40.1508 64.1445 38.9979 64.1445 37.0072C64.1445 36.0287 64.3891 35.0156 64.8783 34.2124L71.8301 31.6972V29.1121C71.8301 27.5402 71.0964 26.0381 69.5244 26.0381C68.5812 26.0381 67.6729 27.1906 67.6032 28.9724L64.4588 29.4961V29.1472C65.5068 26.0029 68.9655 24.7805 70.6421 24.7805C73.8212 24.7805 74.974 26.4571 74.9391 29.0422L74.8344 36.3779C74.7995 37.8102 75.5679 38.1595 76.2667 38.1595C76.8255 38.1595 77.3844 37.8102 78.0484 37.1466V38.1595C77.2799 39.068 75.9176 40.1508 74.6946 40.1508ZM67.708 34.4569C67.5682 35.0156 67.4635 35.5047 67.4635 36.2733C67.4635 37.3211 68.0574 38.369 69.2101 38.369C70.2581 38.369 70.852 38.02 71.7953 37.2863L71.8301 32.5701C70.9219 32.9893 68.6862 33.9678 67.708 34.4569ZM78.3629 39.8363V39.0328C79.9348 38.9281 80.3887 38.5788 80.6686 37.9846V19.8897C80.6686 18.7019 80.4938 18.2131 78.0833 18.0034V17.3048L84.4765 15.6979L84.6859 16.2921L83.6729 17.5495V37.9847C84.0222 38.6836 84.6859 38.9282 86.1182 39.0329V39.8365H78.3629V39.8363ZM94.5022 40.1158C90.8343 40.1158 88.0045 37.2164 88.0045 33.1642C88.0045 28.2037 91.044 24.8152 95.3409 24.8152C98.7992 24.8152 100.721 26.7719 100.721 29.8806V30.5093L91.2885 30.4396C91.2188 30.8237 91.1834 31.4528 91.1834 32.2211C91.1834 35.7841 93.4193 38.1246 96.389 38.1246C98.1703 38.1246 99.0789 37.4958 100.476 36.3082L101 37.1114C99.0089 38.9282 97.3669 40.1158 94.5022 40.1158ZM94.817 25.8984C93.0699 25.8984 91.8476 27.2955 91.4283 29.4961L97.577 29.4264C97.5769 27.575 96.4238 25.8984 94.817 25.8984Z" fill="#00356B"/>
</svg>
