<?xml version="1.0" encoding="UTF-8"?>
<svg width="107px" height="82px" viewBox="0 0 107 82" version="1.1" xmlns="http://www.w3.org/2000/svg" xmlns:xlink="http://www.w3.org/1999/xlink">
    <title>Group 10</title>
    <g id="Page-1" stroke="none" stroke-width="1" fill="none" fill-rule="evenodd">
        <g id="Group-3-Copy" transform="translate(0.000000, -150.000000)">
            <g id="Group-5-Copy-2" transform="translate(0.000000, 6.000000)">
                <g id="Group-10" transform="translate(0.000000, 146.000000)">
                    <path d="M10.352,70.238 C12.1426667,70.238 13.667,69.9206667 14.925,69.286 C16.183,68.6513333 17.135,67.8013333 17.781,66.736 C18.427,65.6706667 18.75,64.5033333 18.75,63.234 C18.75,61.67 18.3986667,60.4006667 17.696,59.426 C16.9933333,58.4513333 16.1546667,57.709 15.18,57.199 C14.2053333,56.689 12.9473333,56.1733333 11.406,55.652 C10.3406667,55.2666667 9.52466667,54.9493333 8.958,54.7 C8.39133333,54.4506667 7.921,54.1276667 7.547,53.731 C7.173,53.3343333 6.986,52.8526667 6.986,52.286 C6.986,51.5833333 7.19566667,51.0506667 7.615,50.688 C8.03433333,50.3253333 8.584,50.144 9.264,50.144 C10.0573333,50.144 10.6863333,50.3763333 11.151,50.841 C11.6156667,51.3056667 11.9046667,51.9346667 12.018,52.728 L12.018,52.728 L18.308,52.728 C18.104,50.5066667 17.2143333,48.7613333 15.639,47.492 C14.0636667,46.2226667 11.9386667,45.588 9.264,45.588 C7.60933333,45.588 6.14166667,45.8656667 4.861,46.421 C3.58033333,46.9763333 2.57733333,47.7753333 1.852,48.818 C1.12666667,49.8606667 0.764,51.096 0.764,52.524 C0.764,54.0653333 1.10966667,55.3176667 1.801,56.281 C2.49233333,57.2443333 3.31966667,57.9696667 4.283,58.457 C5.24633333,58.9443333 6.48733333,59.4486667 8.006,59.97 C9.04866667,60.3326667 9.86466667,60.6443333 10.454,60.905 C11.0433333,61.1656667 11.5363333,61.5 11.933,61.908 C12.3296667,62.316 12.528,62.826 12.528,63.438 C12.528,64.118 12.3126667,64.662 11.882,65.07 C11.4513333,65.478 10.862,65.682 10.114,65.682 C9.25266667,65.682 8.54433333,65.4213333 7.989,64.9 C7.43366667,64.3786667 7.11066667,63.6646667 7.02,62.758 L7.02,62.758 L0.832,62.758 C0.990666667,65.1153333 1.94266667,66.9513333 3.688,68.266 C5.43333333,69.5806667 7.65466667,70.238 10.352,70.238 Z M27.794,79.044 L27.794,66.566 C28.27,67.6993333 29.0293333,68.5946667 30.072,69.252 C31.1146667,69.9093333 32.3613333,70.238 33.812,70.238 C35.376,70.238 36.7756667,69.847 38.011,69.065 C39.2463333,68.283 40.221,67.1553333 40.935,65.682 C41.649,64.2086667 42.006,62.486 42.006,60.514 C42.006,58.5193333 41.649,56.791 40.935,55.329 C40.221,53.867 39.2463333,52.745 38.011,51.963 C36.7756667,51.181 35.376,50.79 33.812,50.79 C32.3613333,50.79 31.1146667,51.1186667 30.072,51.776 C29.0293333,52.4333333 28.27,53.3286667 27.794,54.462 L27.794,54.462 L27.794,51.028 L21.98,51.028 L21.98,79.044 L27.794,79.044 Z M31.942,65.138 C30.718,65.138 29.715,64.7186667 28.933,63.88 C28.151,63.0413333 27.76,61.9193333 27.76,60.514 C27.76,59.086 28.151,57.9583333 28.933,57.131 C29.715,56.3036667 30.718,55.89 31.942,55.89 C33.1886667,55.89 34.1916667,56.298 34.951,57.114 C35.7103333,57.93 36.09,59.0633333 36.09,60.514 C36.09,61.9646667 35.7103333,63.098 34.951,63.914 C34.1916667,64.73 33.1886667,65.138 31.942,65.138 Z M52.24,70.238 C53.6906667,70.238 54.9373333,69.9093333 55.98,69.252 C57.0226667,68.5946667 57.7933333,67.6993333 58.292,66.566 L58.292,66.566 L58.292,70 L64.072,70 L64.072,51.028 L58.292,51.028 L58.292,54.462 C57.7933333,53.3286667 57.0226667,52.4333333 55.98,51.776 C54.9373333,51.1186667 53.6906667,50.79 52.24,50.79 C50.676,50.79 49.2763333,51.181 48.041,51.963 C46.8056667,52.745 45.831,53.867 45.117,55.329 C44.403,56.791 44.046,58.5193333 44.046,60.514 C44.046,62.486 44.403,64.2086667 45.117,65.682 C45.831,67.1553333 46.8056667,68.283 48.041,69.065 C49.2763333,69.847 50.676,70.238 52.24,70.238 Z M54.11,65.138 C52.8633333,65.138 51.8603333,64.73 51.101,63.914 C50.3416667,63.098 49.962,61.9646667 49.962,60.514 C49.962,59.0633333 50.3416667,57.93 51.101,57.114 C51.8603333,56.298 52.8633333,55.89 54.11,55.89 C55.334,55.89 56.337,56.3036667 57.119,57.131 C57.901,57.9583333 58.292,59.086 58.292,60.514 C58.292,61.9193333 57.901,63.0413333 57.119,63.88 C56.337,64.7186667 55.334,65.138 54.11,65.138 Z M76.652,70.238 C79.1,70.238 81.1513333,69.5636667 82.806,68.215 C84.4606667,66.8663333 85.5033333,65.0133333 85.934,62.656 L85.934,62.656 L79.78,62.656 C79.5986667,63.472 79.2246667,64.1066667 78.658,64.56 C78.0913333,65.0133333 77.3773333,65.24 76.516,65.24 C75.496,65.24 74.6573333,64.8376667 74,64.033 C73.3426667,63.2283333 73.014,62.0553333 73.014,60.514 C73.014,58.9726667 73.3426667,57.7996667 74,56.995 C74.6573333,56.1903333 75.496,55.788 76.516,55.788 C77.3773333,55.788 78.0913333,56.0146667 78.658,56.468 C79.2246667,56.9213333 79.5986667,57.556 79.78,58.372 L79.78,58.372 L85.934,58.372 C85.5033333,56.0146667 84.4606667,54.1616667 82.806,52.813 C81.1513333,51.4643333 79.1,50.79 76.652,50.79 C74.7933333,50.79 73.1386667,51.181 71.688,51.963 C70.2373333,52.745 69.1096667,53.867 68.305,55.329 C67.5003333,56.791 67.098,58.5193333 67.098,60.514 C67.098,62.486 67.506,64.2086667 68.322,65.682 C69.138,67.1553333 70.2656667,68.283 71.705,69.065 C73.1443333,69.847 74.7933333,70.238 76.652,70.238 Z M97.528,70.238 C99.1146667,70.238 100.554,69.9376667 101.846,69.337 C103.138,68.7363333 104.203333,67.909 105.042,66.855 C105.880667,65.801 106.424667,64.6053333 106.674,63.268 L106.674,63.268 L100.52,63.268 C100.338667,63.948 99.9646667,64.5033333 99.398,64.934 C98.8313333,65.3646667 98.1173333,65.58 97.256,65.58 C96.236,65.58 95.3973333,65.2683333 94.74,64.645 C94.0826667,64.0216667 93.72,62.996 93.652,61.568 L93.652,61.568 L106.81,61.568 C106.923333,61.0013333 106.98,60.48 106.98,60.004 C106.98,58.1906667 106.589,56.587 105.807,55.193 C105.025,53.799 103.92,52.7166667 102.492,51.946 C101.064,51.1753333 99.4093333,50.79 97.528,50.79 C95.6693333,50.79 94.0146667,51.181 92.564,51.963 C91.1133333,52.745 89.9856667,53.867 89.181,55.329 C88.3763333,56.791 87.974,58.5193333 87.974,60.514 C87.974,62.486 88.382,64.2086667 89.198,65.682 C90.014,67.1553333 91.1416667,68.283 92.581,69.065 C94.0203333,69.847 95.6693333,70.238 97.528,70.238 Z M101.098,59.12 L93.686,59.12 C93.7766667,57.896 94.1733333,56.9666667 94.876,56.332 C95.5786667,55.6973333 96.4626667,55.38 97.528,55.38 C98.548,55.38 99.4036667,55.6916667 100.095,56.315 C100.786333,56.9383333 101.120667,57.8733333 101.098,59.12 L101.098,59.12 Z" id="Space" fill="#212121" fill-rule="nonzero"></path>
                    <path d="M40,14.375 L40,26.25 C40,26.25 43.125,31.25 53.125,31.25 C63.125,31.25 66.25,26.25 66.25,26.25 L66.25,14.375" id="Path-Copy" stroke="#669CFF" stroke-width="3.75" stroke-linecap="round" stroke-linejoin="round"></path>
                    <polygon id="Path-Copy-2" stroke="#186AFF" stroke-width="3.75" stroke-linecap="round" stroke-linejoin="round" points="35 10.625 53.125 0 71.25025 10.625 53.125 21.25"></polygon>
                    <path d="M54.375,10.625 C54.375,11.31525 53.81525,11.875 53.125,11.875 C52.43475,11.875 51.875,11.31525 51.875,10.625 C51.875,9.93465 52.43475,9.375 53.125,9.375 C53.81525,9.375 54.375,9.93465 54.375,10.625 Z" id="Path-Copy-3" stroke="#186AFF" stroke-width="2.5" stroke-linecap="round" stroke-linejoin="round"></path>
                </g>
            </g>
        </g>
    </g>
</svg>