<svg width="115" height="61" viewBox="0 0 115 61" fill="none" xmlns="http://www.w3.org/2000/svg">
<path d="M57 57C71.9117 57 84 44.9117 84 30C84 15.0883 71.9117 3 57 3C42.0883 3 30 15.0883 30 30C30 44.9117 42.0883 57 57 57Z" fill="#00B22D"/>
<path d="M79.194 24.9645C79.194 24.0735 78.492 23.3445 77.601 23.3445C76.737 23.3445 76.0215 24.06 76.0215 24.9645C76.0215 25.8555 76.7235 26.5845 77.601 26.5845C78.492 26.598 79.194 25.869 79.194 24.9645ZM77.601 26.139C76.9935 26.139 76.521 25.626 76.521 24.9645C76.521 24.3165 76.9935 23.8035 77.601 23.8035C78.222 23.8035 78.708 24.3165 78.708 24.9645C78.708 25.626 78.222 26.139 77.601 26.139Z" fill="white"/>
<path d="M78.0329 25.0994C78.1139 25.0724 78.2894 24.9509 78.2894 24.6944C78.2894 24.3839 78.0869 24.1949 77.7495 24.1949H77.034V25.7205H77.5065V25.2074H77.628L77.8439 25.7205H78.3569L78.0734 25.1939C78.0464 25.1129 78.0329 25.0994 78.0329 25.0994V25.0994ZM77.628 24.8834H77.5065V24.5189H77.628C77.7359 24.5189 77.7899 24.5729 77.7899 24.6944C77.8034 24.8159 77.7359 24.8834 77.628 24.8834V24.8834Z" fill="white"/>
<path d="M44.121 26.22C44.792 26.22 45.336 25.676 45.336 25.005C45.336 24.334 44.792 23.79 44.121 23.79C43.45 23.79 42.906 24.334 42.906 25.005C42.906 25.676 43.45 26.22 44.121 26.22Z" fill="white"/>
<path d="M45.39 27.0166H39.828V26.6521C39.828 25.9366 40.5435 25.9231 40.908 25.9231C41.3265 25.9231 41.5155 25.9636 41.5155 25.9636V23.9926C41.5155 23.9926 41.1375 23.9386 40.6245 23.9386C39.4635 23.9386 37.317 24.2626 37.317 26.7196V27.0301H36.3045V28.8526H37.317V32.7002H36.372V34.5227H40.935V32.7002H39.828V28.8526H42.8655V32.7002H41.9205V34.5227H46.335V32.7002H45.39V27.0166ZM54.8401 27.0166H50.8576V28.8391H51.5326L50.6686 31.5391C50.5066 31.9846 50.4661 32.5247 50.4661 32.5247H50.4121C50.4121 32.5247 50.3716 31.9846 50.2096 31.5391L49.3456 28.8391H50.0206V27.0166H46.038V28.8391H46.875L48.954 34.5092H51.9241L54.0031 28.8391H54.8401V27.0166ZM62.2111 30.4591C62.2111 28.3801 60.9556 26.8411 58.7281 26.8411C56.3116 26.8411 54.8266 28.5556 54.8266 30.7561C54.8266 32.7542 56.2711 34.6847 58.9441 34.6847C60.9691 34.6847 62.1706 33.6317 62.1706 33.6317L61.2526 31.8901C61.2526 31.8901 60.2536 32.6057 59.1466 32.6057C58.3501 32.6057 57.5941 32.1872 57.4051 31.2286H62.1571C62.1436 31.2151 62.2111 30.7021 62.2111 30.4591ZM57.4591 29.8381C57.5941 29.2576 57.9451 28.7311 58.6606 28.7311C59.2141 28.7311 59.6056 29.2441 59.6056 29.8381H57.4591ZM72.8626 28.7446H72.8356C72.8356 28.7446 72.8626 28.5961 72.8626 28.3666V27.9751C72.8626 27.2866 72.4846 27.0166 71.7961 27.0166H69.4336V28.8391H70.1356C70.3381 28.8391 70.4596 28.9606 70.4596 29.1631V32.7002H69.4471V34.5227H73.9966V32.7002H72.9841V31.6066C72.9841 30.2431 73.6591 29.3521 75.0496 29.3521C75.3601 29.3521 75.5626 29.3926 75.5626 29.3926V26.9221C75.5626 26.9221 75.4141 26.8951 75.2656 26.8951C74.1316 26.8816 73.1866 27.7186 72.8626 28.7446ZM66.2071 28.7446H66.1801C66.1801 28.7446 66.2071 28.5961 66.2071 28.3666V27.9751C66.2071 27.2866 65.8291 27.0166 65.1406 27.0166H62.7781V28.8391H63.4801C63.6826 28.8391 63.8041 28.9606 63.8041 29.1631V32.7002H62.7916V34.5227H67.3411V32.7002H66.3286V31.6066C66.3286 30.2431 67.0036 29.3521 68.3941 29.3521C68.7046 29.3521 68.9071 29.3926 68.9071 29.3926V26.9221C68.9071 26.9221 68.7586 26.8951 68.6101 26.8951C67.4626 26.8816 66.5176 27.7186 66.2071 28.7446V28.7446Z" fill="white"/>
</svg>
