<svg width="115" height="61" viewBox="0 0 115 61" fill="none" xmlns="http://www.w3.org/2000/svg">
<path d="M73.0932 43.2584H70.7689C70.2967 43.2584 69.9347 43.0045 69.8993 42.5332L69.8623 41.6244C68.1908 42.9697 66.1937 43.6948 64.0875 43.6948C60.0211 43.6948 58.3516 41.1185 58.3516 37.1949V26.4549C58.3516 25.8372 58.7145 25.6192 59.2936 25.6192H61.8367C62.4182 25.6192 62.7454 25.7998 62.7454 26.4549V36.4318C62.7454 38.4298 63.2535 39.8088 65.4331 39.8088C66.8107 39.8088 68.555 39.0473 69.6445 38.0667V26.4549C69.6445 25.8372 69.9719 25.6192 70.551 25.6192H73.1293C73.7111 25.6192 74.0385 25.7998 74.0385 26.4549V42.2425C74.038 43.0045 73.8187 43.2584 73.0932 43.2584ZM14 26.3436C14 25.909 14.2183 25.6183 14.6533 25.6183H17.7251C18.1606 25.6183 18.4147 25.8727 18.4147 26.3436V42.3508C18.4147 43.0045 18.1229 43.2584 17.507 43.2584H14.9444C14.2929 43.2584 14 43.0045 14 42.3508V26.3436ZM78.5813 26.3436C78.5813 25.909 78.8007 25.6183 79.2352 25.6183H82.3068C82.7432 25.6183 82.9973 25.8727 82.9973 26.3436V42.3508C82.9973 43.0045 82.7064 43.2584 82.0883 43.2584H79.5257C78.8739 43.2584 78.5813 43.0045 78.5813 42.3508V26.3436ZM37.8791 43.2584H35.2649C34.6116 43.2584 34.394 42.9321 34.394 42.314V32.437C34.394 30.441 33.8503 29.0243 31.634 29.0243C30.2174 29.0243 28.4753 29.7883 27.3498 30.7673V42.3505C27.3498 42.9695 27.0954 43.2582 26.4793 43.2582H23.8276C23.2827 43.2582 22.9555 42.9695 22.9555 42.3871V26.5304C22.9555 25.949 23.2114 25.6227 23.8641 25.6227H26.2232C26.7312 25.6227 27.06 25.7673 27.0952 26.3119L27.1311 27.2812C28.8027 25.9387 30.9088 25.1767 33.015 25.1767C37.0818 25.1767 38.7517 27.7179 38.7517 31.6758V42.314C38.7515 42.9321 38.5343 43.2584 37.8791 43.2584ZM50.8204 20.6636C50.8204 19.1926 49.6289 18 48.1577 18C46.6874 18 45.4941 19.1926 45.4941 20.6636C45.4941 22.1346 46.6876 23.3259 48.1577 23.3259C49.6289 23.3259 50.8204 22.1346 50.8204 20.6636ZM54.6102 25.6183C55.0457 25.6183 55.3001 25.7629 55.3001 26.2355V28.7926C55.3001 29.2281 55.0101 29.4825 54.5735 29.4825H50.3652V42.3505C50.3652 43.0043 50.0749 43.2582 49.4207 43.2582H46.894C46.2402 43.2582 45.9505 43.0043 45.9505 42.3505V29.4825H41.741C41.3056 29.4825 41.0151 29.2281 41.0151 28.7926V26.2355C41.0151 25.7629 41.269 25.6183 41.7052 25.6183H54.6102ZM95.8811 20.6636C95.8811 19.1926 94.6884 18 93.2174 18C91.7471 18 90.5545 19.1926 90.5545 20.6636C90.5545 22.1346 91.7471 23.3259 93.2174 23.3259C94.6884 23.3259 95.8811 22.1346 95.8811 20.6636V20.6636ZM99.6706 25.6183C100.105 25.6183 100.359 25.7629 100.359 26.2355V28.7926C100.359 29.2281 100.07 29.4825 99.6328 29.4825H95.4245V42.3505C95.4245 43.0043 95.1351 43.2582 94.4809 43.2582H91.9535C91.2995 43.2582 91.01 43.0043 91.01 42.3505L91.0091 29.4825H86.8019C86.3653 29.4825 86.0746 29.2281 86.0746 28.7926V26.2355C86.0746 25.7629 86.3296 25.6183 86.764 25.6183H99.6706ZM100.821 41.0204C101.463 41.0204 102 41.5263 102 42.1899C102 42.8652 101.463 43.3724 100.821 43.3724C100.177 43.3724 99.6359 42.8652 99.6359 42.1899C99.6361 41.5263 100.177 41.0204 100.821 41.0204ZM100.821 43.1999C101.366 43.1999 101.787 42.7662 101.787 42.1899C101.787 41.6275 101.366 41.1929 100.821 41.1929C100.271 41.1929 99.8491 41.6277 99.8491 42.1899C99.8491 42.7664 100.271 43.1999 100.821 43.1999ZM100.362 41.5075H100.893C101.22 41.5075 101.375 41.6365 101.375 41.9012C101.375 42.1483 101.218 42.2537 101.013 42.2751L101.407 42.8824H101.176L100.803 42.2902H100.576V42.8824H100.362V41.5075H100.362ZM100.576 42.1175H100.799C100.988 42.1175 101.161 42.1087 101.161 41.8917C101.161 41.7089 101.004 41.6812 100.859 41.6812H100.576V42.1175H100.576Z" fill="#365EBF"/>
</svg>
